<?xml version="1.0" encoding="iso-8859-1"?>
<!-- Generator: Adobe Illustrator 17.0.2, SVG Export Plug-In . SVG Version: 6.00 Build 0)  -->
<!DOCTYPE svg PUBLIC "-//W3C//DTD SVG 1.1//EN" "http://www.w3.org/Graphics/SVG/1.1/DTD/svg11.dtd">
<svg version="1.1" id="Layer_1" xmlns="http://www.w3.org/2000/svg" xmlns:xlink="http://www.w3.org/1999/xlink" x="0px" y="0px"
	 width="64px" height="64px" viewBox="0 0 64 64" style="enable-background:new 0 0 64 64;" xml:space="preserve">
<g>
	<path d="M55.584,40.043V26.694c0-4.921-1.805-9.222-5.364-12.785c-3.563-3.561-7.865-5.366-12.787-5.366H26.734
		c-4.924,0-9.225,1.801-12.781,5.354c-3.562,3.552-5.369,7.857-5.369,12.797v10.698c0,4.923,1.807,9.225,5.369,12.785
		c3.559,3.561,7.867,5.366,12.808,5.366h16.672c0.827,0,1.5-0.673,1.5-1.5v-1.349c0-0.827-0.673-1.5-1.5-1.5H26.761
		c-3.823,0-7.118-1.384-9.795-4.114c-2.676-2.725-4.033-5.984-4.033-9.688V26.694c0-3.822,1.384-7.114,4.114-9.785
		c2.726-2.666,5.984-4.018,9.688-4.018h10.698c3.805,0,7.093,1.384,9.773,4.113c2.673,2.728,4.028,5.987,4.028,9.689v10.698
		c0,2.032-1.119,3.151-3.15,3.151h-5.35c-2.031,0-3.15-1.119-3.15-3.151V20.694c0-0.827-0.673-1.5-1.5-1.5h-8.651
		c-2.75,0-5.162,1.006-7.169,2.991c-2.01,1.985-3.029,4.41-3.029,7.207v5.302c0,2.83,1.019,5.262,3.027,7.229
		c2.008,1.97,4.101,2.969,6.223,2.969c1.801,0,3.183-0.412,4.107-1.225c0.542-0.476,0.96-1.1,1.24-1.853
		c0.212-0.567,0.411-1.103,0.907-1.103c0.508,0,0.694,0.544,0.891,1.121c0.703,2.059,2.16,3.06,4.454,3.06h10.65
		c1.355,0,2.478-0.47,3.431-1.437C55.12,42.483,55.584,41.367,55.584,40.043z M35.234,34.694c0,0.836-0.159,1.623-0.473,2.339
		c-0.492,1.121-1.9,2.539-3.013,3.034c-0.708,0.316-1.487,0.476-2.316,0.476c-0.846,0-1.64-0.161-2.358-0.479
		c-1.115-0.493-2.524-1.909-3.018-3.03c-0.313-0.716-0.473-1.503-0.473-2.339v-5.302c0-1.597,0.58-2.986,1.725-4.127
		c1.14-1.142,2.527-1.721,4.124-1.721h3.302c1.379,0,2.5,1.122,2.5,2.5V34.694z"/>
</g>
</svg>
