<?xml version="1.0" encoding="UTF-8"?>
<svg width="100%" height="100%" viewBox="22.98022762707581 2.6000000000000005 163.6287296779562 95.87500000000001" version="1.1" xmlns="http://www.w3.org/2000/svg" xmlns:xlink="http://www.w3.org/1999/xlink" xmlns:t="http://www.tagul.com/schema">
<style type="text/css">svg { background-color: rgb(255, 255, 255); } rect { opacity: 0; }</style>
<defs>
<symbol overflow="visible" id="0.39">
<path d="M 407 -645 L 147 -645 C 113 -645 96 -648 96 -648 L 94 -645 C 102 -588 104 -520 104 -445 L 104 -200 C 104 -125 102 -54 94 0 L 95 3 C 95 3 112 0 147 0 C 181 0 198 3 198 3 L 200 0 C 192 -57 190 -125 190 -200 L 190 -317 C 238 -317 344 -314 413 -307 L 416 -310 C 414 -319 413 -333 413 -342 C 413 -351 414 -365 416 -374 L 413 -377 C 354 -372 308 -367 190 -367 L 190 -445 C 190 -462 191 -565 198 -589 C 332 -589 470 -577 470 -577 L 472 -581 C 471 -589 470 -602 470 -611 C 470 -619 471 -631 472 -645 L 470 -648 C 454 -646 431 -645 407 -645 "/>
</symbol>
<symbol overflow="visible" id="0.80">
<path d="M 38 -205 C 38 -85 117 10 250 10 C 382 10 462 -83 462 -214 C 462 -350 389 -439 254 -439 C 123 -439 38 -347 38 -205 M 247 -399 C 353 -399 374 -317 374 -196 C 374 -100.89999389648438 326 -30 259 -30 C 153 -30 126 -145 126 -222 C 126 -309 153 -399 247 -399 "/>
</symbol>
<symbol overflow="visible" id="0.85">
<path d="M 95 -429 C 74.5 -429.1000061035156 53.399993896484375 -429.3999938964844 41 -431 C 34.29998779296875 -414.70001220703125 28.699996948242188 -405 19 -390 L 24 -383 C 41.19999694824219 -384.29998779296875 72.19999694824219 -384.8999938964844 95 -385 L 95 -248 C 95 -188 92 -116 92 -86 C 92 -21 134 10 180 10 C 222 10 254 0 296 -27 L 283.70001220703125 -51.69999694824219 C 253 -40.99998474121094 230 -39.99998474121094 205 -43.99998474121094 C 181.3000030517578 -47.79997253417969 172 -71.89997863769531 172 -125.99998474121094 C 172 -155.99998474121094 175 -198.99998474121094 175 -258.99998474121094 L 175 -384.99998474121094 L 213 -384.99998474121094 C 237 -384.99998474121094 271.70001220703125 -384.2999725341797 285 -382.99998474121094 C 288 -398.99998474121094 291 -409.2999725341797 297 -423.99998474121094 L 292 -430.99998474121094 C 274 -430.2999725341797 245 -428.99998474121094 222 -428.99998474121094 L 175 -428.99998474121094 C 175 -503.7999725341797 175.5 -516.9999847412109 180 -574.9999847412109 C 180 -582.2999725341797 177.3000030517578 -584.9999847412109 171 -584.9999847412109 C 145.89999389648438 -574.9999847412109 133.5 -564.4999847412109 101 -559.9999847412109 L 99 -556.9999847412109 C 97 -522.2999725341797 95 -486.99998474121094 95 -428.99998474121094 "/>
</symbol>
<symbol overflow="visible" id="0.67">
<path d="M 162 -81 L 162 -340 C 201 -380 226 -399 267 -399 C 328.1000061035156 -399 382 -348.70001220703125 382 -224 C 382 -100 345 -30 250 -30 C 219 -30 182 -56 162 -81 M 162 -500 C 162 -574 163.3000030517578 -626.7000122070312 168 -688 C 168 -695 165.3000030517578 -698 159 -698 C 133.89999389648438 -688 112.5 -681 72 -678 L 70 -675 C 77.69999694824219 -632.2999877929688 82 -558 82 -482 L 82 -73 C 82 -34 81.19999694824219 -19.800003051757812 77 2 C 83 8 94.5 10 105 10 C 116 -2 127.5 -19 138 -39 C 167 -14 213 10 256 10 C 358 10 471 -62 471 -232 C 471 -354 384 -439 287 -439 C 239 -439 196 -426 162 -389 "/>
</symbol>
<symbol overflow="visible" id="0.66">
<path d="M 310 -225 L 306 -106 C 306 -93 300 -86 292 -80 C 264 -59 230 -41 200 -41 C 155 -41 126 -71 126 -102 C 126 -147 147 -181 225 -202 M 310.1000061035156 -48 C 321.5 -8.899993896484375 351.3999938964844 10 388 10 C 413.20001220703125 10 444 4 467.6000061035156 -21 L 460.20001220703125 -45.69999694824219 C 449.29998779296875 -41.89997863769531 440.79998779296875 -40.49998474121094 433.20001220703125 -40.49998474121094 C 423.29998779296875 -40.49998474121094 410 -42.39997863769531 403.8999938964844 -47.99998474121094 C 393.70001220703125 -57.29997253417969 387.20001220703125 -81.49998474121094 387.20001220703125 -125.99998474121094 C 387.20001220703125 -154.99998474121094 390 -265.99998474121094 390 -276.99998474121094 C 390 -411.99998474121094 301 -438.99998474121094 225 -438.99998474121094 C 149 -438.99998474121094 103 -401.99998474121094 78 -380.99998474121094 L 75 -376.99998474121094 L 92 -309.99998474121094 L 105 -308.99998474121094 C 133 -353.99998474121094 167 -393.99998474121094 215 -393.99998474121094 C 251 -393.99998474121094 311 -388.99998474121094 311 -275.99998474121094 C 311 -268.99998474121094 307 -264.99998474121094 304 -263.99998474121094 L 211 -242.99998474121094 C 109 -219.99998474121094 45 -165.99998474121094 45 -97.99998474121094 C 45 -23.999984741210938 96 10.000015258789062 170 10.000015258789062 C 225 10.000015258789062 253 -2.9999847412109375 306 -47.99998474121094 "/>
</symbol>
<symbol overflow="visible" id="0.77">
<path d="M 90 -200 C 90 -125.5 88.5 -53.5 81 0 L 83 3 C 95 1 118 0 130 0 C 142 0 165 1 177 3 L 179 0 C 171.1999969482422 -57 170 -124.80000305175781 170 -200 L 170 -500 C 170 -575 174.3000030517578 -624.7000122070312 179 -688 C 179 -695 176.3000030517578 -698 170 -698 C 144.89999389648438 -688 123.5 -681 83 -678 L 81 -675 C 88.69999694824219 -632.2999877929688 90 -558 90 -482 "/>
</symbol>
<symbol overflow="visible" id="0.36">
<path d="M 380 -658 C 211 -658 52 -512 52 -315 C 52 -142 151 10 366 10 C 458.3999938964844 10 545.2999877929688 -18.699996948242188 612.0999755859375 -99.5 C 611.5 -111 609.5 -133 606 -142 L 599 -145 C 528 -67 468 -41 375 -41 C 248.1999969482422 -41 155 -178 155 -334 C 155 -537 284 -611 366 -611 C 456 -611 529 -575 570 -493 L 582 -494 C 585.5999755859375 -545 589 -562.5 600 -605 L 598 -608 C 598 -608 502 -658 380 -658 "/>
</symbol>
<symbol overflow="visible" id="0.73">
<path d="M 170 -352 L 170 -501 C 170 -575 174.1999969482422 -626.5 179 -688 C 179 -695 176.3000030517578 -698 170 -698 C 144.89999389648438 -688 123.5 -681 83 -678 L 81 -675 C 88.69999694824219 -632.2999877929688 90 -557 90 -481 L 90 -180 C 90 -105.5 88.80000305175781 -56 81 0 L 83 3 C 95 1 118 0 130 0 C 142 0 165 1 177 3 L 179 0 C 171.5 -57.19999694824219 170 -104 170 -180 L 170 -297 C 221 -357 279.5 -379 315 -379 C 366 -379 387 -359 387 -278 L 387 -180 C 387 -105 386 -53.79998779296875 378 0 L 380 3 C 392 1 415 0 427 0 C 439 0 462 1 474 3 L 476 0 C 468 -57.19999694824219 467 -104 467 -180 C 467 -212 469 -249 469 -281 C 469 -385 435 -439 345 -439 C 307 -439 236 -424 172 -349 "/>
</symbol>
<symbol overflow="visible" id="0.70">
<path d="M 125 -273 C 142 -377 207.5 -399 239 -399 C 278.5 -399 323 -362 323 -287 C 323 -278 319 -273 309 -273 M 392 -104 C 357 -66 310 -49 255 -49 C 220.8000030517578 -49 173.5 -62 146 -106 C 128.39999389648438 -134.10000610351562 122 -174.89999389648438 122 -233 L 394 -233 C 405 -233 412 -239 412 -250 C 412 -334 371 -439 239 -439 C 136 -439 34 -356 34 -209 C 34 -152.3000030517578 45.5 -96.19999694824219 79 -56 C 113.39999389648438 -14.699996948242188 170.60000610351562 10 238 10 C 310 10 374 -27 412 -79 "/>
</symbol>
<symbol overflow="visible" id="0.84">
<path d="M 50 -101 L 33 -17 C 90 3 146 10 184 10 C 322 10 354 -72 354 -127 C 354 -209 289 -241 218 -258 C 180.1999969482422 -267.1000061035156 125 -286 125 -336 C 125 -377 158 -399 201 -399 C 253 -399 285 -358 308 -331 L 322 -332 L 342 -406 L 340 -409 C 311 -424 256 -439 205 -439 C 131 -439 54 -400 54 -317 C 54 -237 113.69999694824219 -210.60000610351562 174 -194 C 232 -178 275 -162 275 -113 C 275 -60 236 -30 183 -30 C 135 -30 93 -63 65 -102 "/>
</symbol>
<symbol overflow="visible" id="0.53">
<path d="M 227 -445 L 227 -200 C 227 -125 225 -54 217 0 L 219 3 C 231 1 258 0 270 0 C 282 0 309 1 321 3 L 323 0 C 315 -57 313 -125 313 -200 L 313 -445 C 313 -462 314 -565 321 -589 C 455 -589 523 -575 523 -575 L 525 -579 C 523 -594 523 -617 525 -645 L 523 -648 C 507 -646 484 -645 463 -645 L 77 -645 C 56 -645 33 -646 17 -648 L 15 -645 C 17 -617 17 -594 15 -579 L 17 -575 C 17 -575 85 -589 219 -589 C 226 -565 227 -462 227 -445 "/>
</symbol>
<symbol overflow="visible" id="0.83">
<path d="M 167 -334 L 167 -425 C 167 -432.70001220703125 165.6999969482422 -435 161 -435 C 138.5 -430.5 102.69999694824219 -429.70001220703125 80 -432 L 78 -429 C 85 -385.70001220703125 87 -310 87 -235 L 87 -180 C 87 -105 85.80000305175781 -53.79998779296875 78 0 L 80 3 C 92 1 115 0 127 0 C 139 0 162 1 174 3 L 176 0 C 168.5 -57 167 -104 167 -180 L 167 -232 C 167 -274 179.5 -298 201 -331 C 215.5 -353.29998779296875 238 -366 257 -366 C 277 -366 296 -364 309 -352 L 317 -354 L 337 -428 L 333 -432 C 316 -437 315 -439 297 -439 C 243 -439 214 -408 170 -332 "/>
</symbol>
<symbol overflow="visible" id="0.87">
<path d="M 202 3 C 212 0 223 0 233 0 C 243 0 254 0 263 3 C 315 -143 377 -285 442 -432 C 433 -429 414 -429 404 -429 C 394 -429 379 -429 370 -432 C 329.5 -318.8999938964844 294.70001220703125 -188.10000610351562 248.8000030517578 -90.10000610351562 L 246.8000030517578 -90.10000610351562 C 196.70001220703125 -204.60003662109375 164.30001831054688 -317.3000183105469 128.00001525878906 -432.0000305175781 C 115.00001525878906 -429.0000305175781 92.00001525878906 -429.0000305175781 78.00001525878906 -429.0000305175781 C 62.00001525878906 -429.0000305175781 36.00001525878906 -429.0000305175781 20.000015258789062 -432.0000305175781 C 87.00001525878906 -285.0000305175781 146.00001525878906 -143.00003051757812 202.00001525878906 2.999969482421875 "/>
</symbol>
<symbol overflow="visible" id="0.74">
<path d="M 80 -597 C 80 -570 104 -546 131 -546 C 158 -546 182 -570 182 -597 C 182 -624 158 -648 131 -648 C 104 -648 80 -624 80 -597 M 90 -235 L 90 -180 C 90 -105 88.19999694824219 -54 81 0 L 83 3 C 95 1 118 0 130 0 C 142 0 165 1 177 3 L 179 0 C 171.8000030517578 -56.79998779296875 170 -104 170 -180 L 170 -251 C 170 -326 172.5 -362 179 -423 C 179 -432 177.8000030517578 -433 170 -433 C 147.3000030517578 -430.70001220703125 104.19999694824219 -430.29998779296875 83 -432 L 81 -429 C 87.30000305175781 -386.20001220703125 90 -310 90 -235 "/>
</symbol>
<symbol overflow="visible" id="0.79">
<path d="M 460 -180 C 460 -212 462 -249 462 -281 C 462 -385 428 -439 338 -439 C 300 -439 229 -424 165 -349 L 163 -352 L 163 -425 C 162.8000030517578 -432.70001220703125 161.6999969482422 -435 157 -435 C 134.5 -430.5 98.69999694824219 -429.70001220703125 76 -432 L 74 -429 C 81 -385.70001220703125 83 -310 83 -235 L 83 -180 C 83 -105 82 -54 74 0 L 76 3 C 88 1 111 0 123 0 C 135 0 158 1 170 3 L 172 0 C 164 -57 163 -104 163 -180 L 163 -297 C 214 -357 272 -379 308 -379 C 359 -379 380 -359 380 -278 L 380 -180 C 380 -105 378.20001220703125 -53.79998779296875 371 0 L 373 3 C 385 1 408 0 420 0 C 432 0 455 1 467 3 L 469 0 C 461.20001220703125 -57 460 -104 460 -180 "/>
</symbol>
<symbol overflow="visible" id="0.72">
<path d="M 101 104 C 101 70.89999389648438 131 34 166 15 C 195.5 15 241.1999969482422 12 255 12 C 303 12 333.6000061035156 12.899993896484375 361 29 C 390 46 400 75 400 101 C 400 162 318 194 232 194 C 167 194 101 172 101 104 M 390 -285 C 390 -354 363 -386 339.6000061035156 -401.3999938964844 C 369.70001220703125 -399 402.79998779296875 -395.20001220703125 444 -391 L 447 -394 C 445 -403 444 -411 444 -420 C 444 -429 445 -437 447 -446 L 444 -449 C 396.20001220703125 -444.8999938964844 360.8999938964844 -434.29998779296875 286.29998779296875 -430.3999938964844 C 268.3999938964844 -436 246.5 -439 225 -439 C 146 -439 55 -386.1000061035156 55 -287 C 55 -212 98 -178 126 -162 C 97 -142 62 -113 62 -79 C 62 -38 86 -2 139.89999389648438 7.3000030517578125 C 112 18.699996948242188 80.89999389648438 38 55 58 C 42.5 77 32 105.30000305175781 32 124 C 32 202.6999969482422 118 237 224 237 C 380.1000061035156 237 473 171.6999969482422 473 78 C 473 33.899993896484375 459 2.899993896484375 431 -21 C 393.5 -53 325 -54 290 -54 C 273 -54 233 -52 210 -49 C 196 -48 186 -47 181 -47 C 153 -47 123 -51 123 -94 C 123 -114 128 -131 150 -150 C 163 -143 193.89999389648438 -136 224 -136 C 328 -136 390 -206.1999969482422 390 -285 M 312 -284 C 312 -223.3000030517578 287 -176 227 -176 C 155 -176 133 -223 133 -292 C 133 -358 163 -401 221 -401 C 286 -401 312 -355 312 -284 "/>
</symbol>
<symbol overflow="visible" id="0.46">
<path d="M 193 -662 C 158 -460 103 -184 64 3 C 75 0 85 0 97 0 C 108 0 116 0 127 3 C 142 -102 176.3000030517578 -325.1000061035156 200.8000030517578 -476.20001220703125 L 205.1999969482422 -476.20001220703125 C 280.7999725341797 -317 350.99998474121094 -155 414.99998474121094 0 L 433.99998474121094 0 C 505.99998474121094 -164.1999969482422 576.9999847412109 -316 655.9999847412109 -473 L 659.4999847412109 -472.8999938964844 C 680.6999969482422 -315.20001220703125 700.2999725341797 -162.8000030517578 714.9999847412109 3 C 729.9999847412109 0 748.9999847412109 0 763.9999847412109 0 C 778.9999847412109 0 804.9999847412109 0 819.9999847412109 3 C 783.9999847412109 -211 753.9999847412109 -419 725.9999847412109 -662 L 700.9999847412109 -662 L 458.3999786376953 -166 L 449.99998474121094 -166.3000030517578 C 371.2999725341797 -330.00001525878906 299.7999725341797 -490.2000274658203 225.99998474121094 -662.0000152587891 "/>
</symbol>
<symbol overflow="visible" id="0.1">
<path d=""/>
</symbol>
<symbol overflow="visible" id="0.52">
<path d="M 242 -34 C 186 -34 114 -83 83 -142 L 73 -141 C 69 -105 58 -68 50 -38 L 52 -35 C 52 -35 117 10 234 10 C 357 10 452 -65 452 -181 C 452 -297 353.8999938964844 -350.79998779296875 273 -381 C 222 -400 151 -429 151 -512 C 151 -548 171 -588 197 -602 C 214 -611 235 -614 258 -614 C 313 -614 367 -571 394 -509 L 404 -510 C 408 -546 418 -580 427 -610 L 425 -613 C 425 -613 383 -658 266 -658 C 239 -658 209 -653 180 -641 C 121 -616 70 -558 70 -485 C 70 -380 159 -331 242 -296 C 307 -269 359 -236 359 -151 C 359 -76 301 -34 242 -34 "/>
</symbol>
<symbol overflow="visible" id="0.68">
<path d="M 250 -399 C 288.5 -399 323.5 -370.5 350 -325 L 363 -326 L 386 -408 L 384 -411 C 353 -427 301 -439 251 -439 C 147 -439 38 -354 38 -218 C 38 -78.89999389648438 117 10 239 10 C 299 10 346 -10 386 -61 L 367 -82 L 363 -82 C 325 -48 293.20001220703125 -40 256 -40 C 183 -40 126 -106 126 -223 C 126 -333 184 -399 250 -399 "/>
</symbol>
<symbol overflow="visible" id="0.14">
<path d="M 274 -236 C 287 -236 301 -261 301 -272 C 301 -281 297 -290 287 -290 L 58 -290 C 46 -290 33 -269 33 -253 C 33 -244 39 -236 48 -236 "/>
</symbol>
<symbol overflow="visible" id="0.34">
<path d="M 407.29998779296875 -275.5 C 374.29998779296875 -274 332.70001220703125 -273 303 -273 C 274.1000061035156 -273 220.60000610351562 -274.70001220703125 198.60000610351562 -275.8999938964844 L 304 -521.7999877929688 L 306 -521.7999877929688 C 347.1000061035156 -427.3999938964844 380.3999938964844 -345.20001220703125 407.29998779296875 -275.5 M 179 -228.3000030517578 C 204 -230.00001525878906 273.5 -231.00001525878906 308 -231.00001525878906 C 346 -231.00001525878906 401 -230.00001525878906 425.29998779296875 -228.30001831054688 C 474.29998779296875 -97.20001220703125 496.8999938964844 -19.20001220703125 503 2.9999847412109375 C 520 -0.0000152587890625 536 -0.0000152587890625 553 -0.0000152587890625 C 570 -0.0000152587890625 596 -0.0000152587890625 613 2.9999847412109375 C 563 -98.00001525878906 431 -439.00001525878906 339 -658.0000152587891 L 311 -658.0000152587891 C 215 -436.00001525878906 117 -218.00001525878906 16 2.9999847412109375 C 28 -0.0000152587890625 40 -0.0000152587890625 51 -0.0000152587890625 C 62 -0.0000152587890625 84 -0.0000152587890625 96 2.9999847412109375 C 112.39999389648438 -58.30000305175781 143.3000030517578 -140.80001831054688 179 -228.30001831054688 "/>
</symbol>
<symbol overflow="visible" id="0.71">
<path d="M 99 -429 C 77.30000305175781 -429 54.19999694824219 -429.20001220703125 41 -431 C 34.29998779296875 -414.70001220703125 28.699996948242188 -405 19 -390 L 24 -383 C 42 -384.29998779296875 75 -385 98 -385 L 99 -385 L 99 -199 C 99 -124 97.5 -53.5 89 0 L 91 3 C 103 1 127 0 139 0 C 151 0 175 1 187 3 L 189 0 C 180.5 -57 179 -124 179 -199 L 179 -385 L 213 -385 C 237 -385 271.70001220703125 -384.29998779296875 285 -383 C 288 -399 291 -409.29998779296875 297 -424 L 292 -431 C 275.20001220703125 -430.20001220703125 245 -429 222 -429 L 179 -429 L 179 -438 C 179 -474 174 -526 174 -544 C 174 -599.2000122070312 209.6999969482422 -637 267 -637 C 292.70001220703125 -637 314 -622 325 -602 L 336 -603 C 343 -630 353.70001220703125 -663.7000122070312 364 -685 L 363 -688 C 355 -693 337 -698 318 -698 C 255 -698 191.6999969482422 -668.7000122070312 154 -621 C 116 -573 99 -526 99 -468 "/>
</symbol>
<symbol overflow="visible" id="0.45">
<path d="M 191 -445 C 191 -520 193 -592 201 -645 L 200 -648 C 188 -646 160 -645 148 -645 C 136 -645 109 -646 97 -648 L 95 -645 C 103 -588 105 -520 105 -445 L 105 -200 C 105 -125 103 -54 95 0 L 96 3 C 96 3 114 0 148 0 L 421 0 C 442 0 465 1 481 3 L 483 0 C 482 -14 481 -34 481 -44 C 481 -54 482 -71 483 -79 L 481 -83 C 481 -83 333 -61 199 -61 C 192 -85 191 -183 191 -200 "/>
</symbol>
<symbol overflow="visible" id="0.86">
<path d="M 365 -92 L 369 -89 L 374 0 C 374 2 375.20001220703125 3 378 3 C 391.29998779296875 1.3000030517578125 403 0 417.5 0 C 430.1000061035156 0 449 1 462 3 L 464 0 C 456 -43 447 -117 447 -192 L 447 -249 C 447 -324 448 -376 456 -429 L 454 -432 C 442 -430 419 -429 407 -429 C 395 -429 372 -430 360 -432 L 358 -429 C 365.79998779296875 -371.79998779296875 367 -325 367 -249 L 367 -151 C 336.5 -99.5 279 -46 230 -46 C 195.5 -46 163 -57 163 -150 L 163 -249 C 163 -324 164 -376 172 -429 L 170 -432 C 158 -430 135 -429 123 -429 C 111 -429 88 -430 76 -432 L 74 -429 C 82 -372 83 -325 83 -249 L 83 -129 C 83 -60 115 10 214 10 C 276 10 332 -41 365 -92 "/>
</symbol>
<symbol overflow="visible" id="0.78">
<path d="M 162 -352 L 162 -425 C 162 -432.70001220703125 160.6999969482422 -435 156 -435 C 133.5 -430.5 97.69999694824219 -429.70001220703125 75 -432 L 73 -429 C 80 -385.70001220703125 82 -310 82 -235 L 82 -180 C 82 -105 81 -54 73 0 L 75 3 C 87 1 110 0 122 0 C 134 0 157 1 169 3 L 171 0 C 163 -57 162 -104 162 -180 L 162 -301 C 209 -349 265 -379 300 -379 C 338 -379 366 -357 366 -290 L 366 -180 C 366 -105 365 -54 357 0 L 359 3 C 371 1 394 0 406 0 C 418 0 441 1 453 3 L 455 0 C 447 -57 446 -104 446 -180 L 446 -281 C 446 -295 446 -307 445 -319 C 493 -372 533 -379 572 -379 C 626 -379 652 -357 652 -290 L 652 -180 C 652 -105 651 -54 643 0 L 645 3 C 657 1 680 0 692 0 C 704 0 727 1 739 3 L 741 0 C 733 -57 732 -104 732 -180 L 732 -280 C 732 -369 716 -439 608 -439 C 554 -439 496 -420 439 -360 C 430 -408 389 -439 333 -439 C 271 -439 212 -399 165 -349 "/>
</symbol>
<symbol overflow="visible" id="0.88">
<path d="M 205 4 C 215 1 228 1 238 1 C 248 1 265 1 274 4 C 301.3999938964844 -72.89999389648438 330.3999938964844 -155.1999969482422 362.6000061035156 -233.6999969482422 C 392.6000061035156 -155.60000610351562 424.5 -74.60000610351562 453 3 C 463 0 469 0 479 0 C 489 0 507 0 516 3 C 565 -115 645 -307 702 -432 C 693 -429 669 -429 659 -429 C 649 -429 634 -429 625 -432 C 588 -314 543 -186 501.79998779296875 -90.10000610351562 L 493.79998779296875 -90.10000610351562 C 452 -200.00003051757812 421 -326.0000305175781 398 -432.0000305175781 C 385 -429.0000305175781 362 -429.0000305175781 348 -429.0000305175781 C 332 -429.0000305175781 306 -429.0000305175781 290 -432.0000305175781 C 303.70001220703125 -391.0000305175781 319.6000061035156 -347.0000305175781 336.79998779296875 -301.3000183105469 C 310 -226.00003051757812 282.79998779296875 -151.00003051757812 253.8000030517578 -89.10003662109375 L 247.8000030517578 -89.10003662109375 C 197.70001220703125 -203.60006713867188 164.30001831054688 -316.300048828125 128.00001525878906 -431.00006103515625 C 115.00001525878906 -428.00006103515625 92.00001525878906 -428.00006103515625 78.00001525878906 -428.00006103515625 C 62.00001525878906 -428.00006103515625 36.00001525878906 -428.00006103515625 20.000015258789062 -431.00006103515625 C 87.00001525878906 -284.00006103515625 149.00001525878906 -142.00006103515625 205.00001525878906 3.99993896484375 "/>
</symbol>
</defs>
<a xlink:href="http://tagul.com/go?tag=Football" target="_top">
	<t:tag>Football</t:tag>
	<g transform="matrix(0.048022597835075294,0,0,0.048022597835075294,18.46610343057873,66.51977328888256)" fill="#000000">
		<rect x="-22.820002517700203" y="-814.8200025177002" width="3399.6400050354005" height="941.6400202941895"/>
		<use xlink:href="#0.39" x="0" y="0"/>
		<use xlink:href="#0.80" x="504" y="0"/>
		<use xlink:href="#0.80" x="1004" y="0"/>
		<use xlink:href="#0.85" x="1504" y="0"/>
		<use xlink:href="#0.67" x="1844" y="0"/>
		<use xlink:href="#0.66" x="2348" y="0"/>
		<use xlink:href="#0.77" x="2829" y="0"/>
		<use xlink:href="#0.77" x="3081" y="0"/>
	</g>
</a>
<a xlink:href="http://tagul.com/go?tag=Chess" target="_top">
	<t:tag>Chess</t:tag>
	<g transform="matrix(0.03241525423728814,0,0,0.03241525423728814,78.94041992545077,91.65084745762712)" fill="#000000">
		<rect x="-64.82000000000001" y="-814.82" width="2610.64" height="941.64"/>
		<use xlink:href="#0.36" x="0" y="0"/>
		<use xlink:href="#0.73" x="677" y="0"/>
		<use xlink:href="#0.70" x="1226" y="0"/>
		<use xlink:href="#0.84" x="1679" y="0"/>
		<use xlink:href="#0.84" x="2075" y="0"/>
	</g>
</a>
<a xlink:href="http://tagul.com/go?tag=Travelling" target="_top">
	<t:tag>Travelling</t:tag>
	<g transform="matrix(0.021818181818181816,0,0,0.021818181818181816,52.20486079536718,26.029090909090908)" fill="#000000">
		<rect x="-139.275" y="-852.275" width="4360.55" height="1243.55"/>
		<use xlink:href="#0.53" x="0" y="0"/>
		<use xlink:href="#0.83" x="540" y="0"/>
		<use xlink:href="#0.66" x="895" y="0"/>
		<use xlink:href="#0.87" x="1376" y="0"/>
		<use xlink:href="#0.70" x="1838" y="0"/>
		<use xlink:href="#0.77" x="2291" y="0"/>
		<use xlink:href="#0.77" x="2543" y="0"/>
		<use xlink:href="#0.74" x="2795" y="0"/>
		<use xlink:href="#0.79" x="3055" y="0"/>
		<use xlink:href="#0.72" x="3594" y="0"/>
	</g>
</a>
<a xlink:href="http://tagul.com/go?tag=Martial arts" target="_top">
	<t:tag>Martial arts</t:tag>
	<g transform="matrix(0.013206214404645707,0,0,0.013206214404645707,42.021837095035046,37.0429376544427)" fill="#000000">
		<rect x="-52.8200025177002" y="-814.8200025177002" width="5004.6400050354005" height="941.6400202941895"/>
		<use xlink:href="#0.46" x="0" y="0"/>
		<use xlink:href="#0.66" x="886" y="0"/>
		<use xlink:href="#0.83" x="1367" y="0"/>
		<use xlink:href="#0.85" x="1722" y="0"/>
		<use xlink:href="#0.74" x="2062" y="0"/>
		<use xlink:href="#0.66" x="2322" y="0"/>
		<use xlink:href="#0.77" x="2803" y="0"/>
		<use xlink:href="#0.1" x="3055" y="0"/>
		<use xlink:href="#0.66" x="3305" y="0"/>
		<use xlink:href="#0.83" x="3786" y="0"/>
		<use xlink:href="#0.85" x="4141" y="0"/>
		<use xlink:href="#0.84" x="4481" y="0"/>
	</g>
</a>
<a xlink:href="http://tagul.com/go?tag=Sci-Fi" target="_top">
	<t:tag>Sci-Fi</t:tag>
	<g transform="matrix(0.01781437125748503,0,0,0.01781437125748503,39.09638199743782,79.77185628742515)" fill="#000000">
		<rect x="-60.22" y="-768.22" width="2384.44" height="888.44"/>
		<use xlink:href="#0.52" x="0" y="0"/>
		<use xlink:href="#0.68" x="506" y="0"/>
		<use xlink:href="#0.74" x="935" y="0"/>
		<use xlink:href="#0.14" x="1195" y="0"/>
		<use xlink:href="#0.39" x="1528" y="0"/>
		<use xlink:href="#0.74" x="2032" y="0"/>
	</g>
</a>
<a xlink:href="http://tagul.com/go?tag=Artificial intelligence" target="_top">
	<t:tag>Artificial intelligence</t:tag>
	<g transform="matrix(0.00909090909090909,0,0,0.00909090909090909,109.17259366866837,74.09545454545454)" fill="#000000">
		<rect x="-138.275" y="-852.275" width="8810.55" height="1243.55"/>
		<use xlink:href="#0.34" x="0" y="0"/>
		<use xlink:href="#0.83" x="629" y="0"/>
		<use xlink:href="#0.85" x="984" y="0"/>
		<use xlink:href="#0.74" x="1324" y="0"/>
		<use xlink:href="#0.71" x="1584" y="0"/>
		<use xlink:href="#0.74" x="1898" y="0"/>
		<use xlink:href="#0.68" x="2158" y="0"/>
		<use xlink:href="#0.74" x="2587" y="0"/>
		<use xlink:href="#0.66" x="2847" y="0"/>
		<use xlink:href="#0.77" x="3328" y="0"/>
		<use xlink:href="#0.1" x="3580" y="0"/>
		<use xlink:href="#0.74" x="3830" y="0"/>
		<use xlink:href="#0.79" x="4090" y="0"/>
		<use xlink:href="#0.85" x="4629" y="0"/>
		<use xlink:href="#0.70" x="4969" y="0"/>
		<use xlink:href="#0.77" x="5422" y="0"/>
		<use xlink:href="#0.77" x="5674" y="0"/>
		<use xlink:href="#0.74" x="5926" y="0"/>
		<use xlink:href="#0.72" x="6186" y="0"/>
		<use xlink:href="#0.70" x="6685" y="0"/>
		<use xlink:href="#0.79" x="7138" y="0"/>
		<use xlink:href="#0.68" x="7677" y="0"/>
		<use xlink:href="#0.70" x="8106" y="0"/>
	</g>
</a>
<a xlink:href="http://tagul.com/go?tag=Literature" target="_top">
	<t:tag>Literature</t:tag>
	<g transform="matrix(0.010334346264909408,0,0,0.010334346264909408,87.30874375156613,9.296656379661297)" fill="#000000">
		<rect x="-13.570002517700203" y="-756.5700025177002" width="4170.1400050354005" height="875.1400202941895"/>
		<use xlink:href="#0.45" x="0" y="0"/>
		<use xlink:href="#0.74" x="515" y="0"/>
		<use xlink:href="#0.85" x="775" y="0"/>
		<use xlink:href="#0.70" x="1115" y="0"/>
		<use xlink:href="#0.83" x="1568" y="0"/>
		<use xlink:href="#0.66" x="1923" y="0"/>
		<use xlink:href="#0.85" x="2404" y="0"/>
		<use xlink:href="#0.86" x="2744" y="0"/>
		<use xlink:href="#0.83" x="3281" y="0"/>
		<use xlink:href="#0.70" x="3636" y="0"/>
	</g>
</a>
<a xlink:href="http://tagul.com/go?tag=Semantic web" target="_top">
	<t:tag>Semantic web</t:tag>
	<g transform="matrix(0.008403954621138177,0,0,0.008403954621138177,101.34555374716011,98.39096032555446)" fill="#000000">
		<rect x="-66.8200025177002" y="-814.8200025177002" width="5894.6400050354005" height="941.6400202941895"/>
		<use xlink:href="#0.52" x="0" y="0"/>
		<use xlink:href="#0.70" x="506" y="0"/>
		<use xlink:href="#0.78" x="959" y="0"/>
		<use xlink:href="#0.66" x="1766" y="0"/>
		<use xlink:href="#0.79" x="2247" y="0"/>
		<use xlink:href="#0.85" x="2786" y="0"/>
		<use xlink:href="#0.74" x="3126" y="0"/>
		<use xlink:href="#0.68" x="3386" y="0"/>
		<use xlink:href="#0.1" x="3815" y="0"/>
		<use xlink:href="#0.88" x="4065" y="0"/>
		<use xlink:href="#0.70" x="4787" y="0"/>
		<use xlink:href="#0.67" x="5240" y="0"/>
	</g>
</a>
</svg>