<?xml version="1.0" encoding="UTF-8"?>
<svg width="100%" height="100%" viewBox="23.701131577117163 14.126061857910829 151.59773684576567 71.07393814208918" version="1.1" xmlns="http://www.w3.org/2000/svg" xmlns:xlink="http://www.w3.org/1999/xlink" xmlns:t="http://www.tagul.com/schema">
<style type="text/css">svg { background-color: rgb(255, 255, 255); } rect { opacity: 0; }</style>
<defs>
<symbol overflow="visible" id="0.54">
<path d="M 544 -445 L 544 -277 C 544 -165 527 -46 358 -46 C 190 -46 190 -215 190 -269 L 190 -445 C 190 -520 192 -592 200 -645 L 198 -648 C 186 -646 159 -645 147 -645 C 135 -645 108 -646 96 -648 L 94 -645 C 102 -588 104 -520 104 -445 L 104 -236 C 104 -32 247 10 337 10 C 542 10 598 -117 598 -295 L 598 -445 C 598 -520 600 -592 608 -645 L 606 -648 C 594 -646 583 -645 571 -645 C 559 -645 548 -646 536 -648 L 534 -645 C 542 -588 544 -520 544 -445 "/>
</symbol>
<symbol overflow="visible" id="0.76">
<path d="M 90 -200 C 90 -125.5 88.5 -53.5 81 0 L 83 3 C 95 1 118 0 130 0 C 142 0 165 1 177 3 L 179 0 C 171.1999969482422 -57 170 -124.80000305175781 170 -200 L 170 -210 C 178.1999969482422 -209.8000030517578 202.39999389648438 -206.6999969482422 211 -199 C 276 -131 300 -95 368 3 C 383.29998779296875 1.1999969482421875 417 0 434 0 C 450.70001220703125 0 485 1.1999969482421875 494 3 L 496 0 C 421.6000061035156 -78.60000610351562 368.3999938964844 -122.80000305175781 273 -238 C 312.3999938964844 -278.8999938964844 410 -373.8999938964844 475 -429 L 473 -432 C 454 -429 399 -429 372 -429 C 328.8999938964844 -366.5 253.60000610351562 -285.5 214 -255 C 201.3000030517578 -245.3000030517578 183 -241.1999969482422 170 -240.10000610351562 L 170 -500 C 170 -575 174.3000030517578 -624.7000122070312 179 -688 C 179 -695 176.3000030517578 -698 170 -698 C 144.89999389648438 -688 123.5 -681 83 -678 L 81 -675 C 88.69999694824219 -632.2999877929688 90 -558 90 -482 "/>
</symbol>
<symbol overflow="visible" id="0.83">
<path d="M 167 -334 L 167 -425 C 167 -432.70001220703125 165.6999969482422 -435 161 -435 C 138.5 -430.5 102.69999694824219 -429.70001220703125 80 -432 L 78 -429 C 85 -385.70001220703125 87 -310 87 -235 L 87 -180 C 87 -105 85.80000305175781 -53.79998779296875 78 0 L 80 3 C 92 1 115 0 127 0 C 139 0 162 1 174 3 L 176 0 C 168.5 -57 167 -104 167 -180 L 167 -232 C 167 -274 179.5 -298 201 -331 C 215.5 -353.29998779296875 238 -366 257 -366 C 277 -366 296 -364 309 -352 L 317 -354 L 337 -428 L 333 -432 C 316 -437 315 -439 297 -439 C 243 -439 214 -408 170 -332 "/>
</symbol>
<symbol overflow="visible" id="0.66">
<path d="M 310 -225 L 306 -106 C 306 -93 300 -86 292 -80 C 264 -59 230 -41 200 -41 C 155 -41 126 -71 126 -102 C 126 -147 147 -181 225 -202 M 310.1000061035156 -48 C 321.5 -8.899993896484375 351.3999938964844 10 388 10 C 413.20001220703125 10 444 4 467.6000061035156 -21 L 460.20001220703125 -45.69999694824219 C 449.29998779296875 -41.89997863769531 440.79998779296875 -40.49998474121094 433.20001220703125 -40.49998474121094 C 423.29998779296875 -40.49998474121094 410 -42.39997863769531 403.8999938964844 -47.99998474121094 C 393.70001220703125 -57.29997253417969 387.20001220703125 -81.49998474121094 387.20001220703125 -125.99998474121094 C 387.20001220703125 -154.99998474121094 390 -265.99998474121094 390 -276.99998474121094 C 390 -411.99998474121094 301 -438.99998474121094 225 -438.99998474121094 C 149 -438.99998474121094 103 -401.99998474121094 78 -380.99998474121094 L 75 -376.99998474121094 L 92 -309.99998474121094 L 105 -308.99998474121094 C 133 -353.99998474121094 167 -393.99998474121094 215 -393.99998474121094 C 251 -393.99998474121094 311 -388.99998474121094 311 -275.99998474121094 C 311 -268.99998474121094 307 -264.99998474121094 304 -263.99998474121094 L 211 -242.99998474121094 C 109 -219.99998474121094 45 -165.99998474121094 45 -97.99998474121094 C 45 -23.999984741210938 96 10.000015258789062 170 10.000015258789062 C 225 10.000015258789062 253 -2.9999847412109375 306 -47.99998474121094 "/>
</symbol>
<symbol overflow="visible" id="0.74">
<path d="M 80 -597 C 80 -570 104 -546 131 -546 C 158 -546 182 -570 182 -597 C 182 -624 158 -648 131 -648 C 104 -648 80 -624 80 -597 M 90 -235 L 90 -180 C 90 -105 88.19999694824219 -54 81 0 L 83 3 C 95 1 118 0 130 0 C 142 0 165 1 177 3 L 179 0 C 171.8000030517578 -56.79998779296875 170 -104 170 -180 L 170 -251 C 170 -326 172.5 -362 179 -423 C 179 -432 177.8000030517578 -433 170 -433 C 147.3000030517578 -430.70001220703125 104.19999694824219 -430.29998779296875 83 -432 L 81 -429 C 87.30000305175781 -386.20001220703125 90 -310 90 -235 "/>
</symbol>
<symbol overflow="visible" id="0.79">
<path d="M 460 -180 C 460 -212 462 -249 462 -281 C 462 -385 428 -439 338 -439 C 300 -439 229 -424 165 -349 L 163 -352 L 163 -425 C 162.8000030517578 -432.70001220703125 161.6999969482422 -435 157 -435 C 134.5 -430.5 98.69999694824219 -429.70001220703125 76 -432 L 74 -429 C 81 -385.70001220703125 83 -310 83 -235 L 83 -180 C 83 -105 82 -54 74 0 L 76 3 C 88 1 111 0 123 0 C 135 0 158 1 170 3 L 172 0 C 164 -57 163 -104 163 -180 L 163 -297 C 214 -357 272 -379 308 -379 C 359 -379 380 -359 380 -278 L 380 -180 C 380 -105 378.20001220703125 -53.79998779296875 371 0 L 373 3 C 385 1 408 0 420 0 C 432 0 455 1 467 3 L 469 0 C 461.20001220703125 -57 460 -104 460 -180 "/>
</symbol>
<symbol overflow="visible" id="0.51">
<path d="M 190 -286 C 225 -286 255.8000030517578 -287.1000061035156 282.79998779296875 -289.1000061035156 C 310.8999938964844 -256.20001220703125 332.5 -217.10000610351562 358 -176 C 394 -118 442 -31 453 3 C 472 0 494 0 513 0 C 533 0 553 0 573 3 L 575 0 C 525.0999755859375 -56.5 424.79998779296875 -214.6999969482422 361.5 -299 C 388.20001220703125 -304.29998779296875 408 -310.79998779296875 422 -318 C 476 -345 522 -397 522 -479 C 522 -529 505 -570 469 -604 C 421 -649 345 -652 282 -652 C 257 -652 177 -645 147 -645 C 135 -645 108 -646 96 -648 L 94 -645 C 102 -588 104 -520 104 -445 L 104 -200 C 104 -125 102 -54 94 0 L 96 3 C 108 1 135 0 147 0 C 159 0 186 1 198 3 L 200 0 C 192 -57 190 -125 190 -200 M 283 -609 C 344 -609 426 -586 426 -478 C 426 -356 345 -326 248 -326 L 190 -326 L 190 -565 C 190 -604 193 -609 283 -609 "/>
</symbol>
<symbol overflow="visible" id="0.86">
<path d="M 365 -92 L 369 -89 L 374 0 C 374 2 375.20001220703125 3 378 3 C 391.29998779296875 1.3000030517578125 403 0 417.5 0 C 430.1000061035156 0 449 1 462 3 L 464 0 C 456 -43 447 -117 447 -192 L 447 -249 C 447 -324 448 -376 456 -429 L 454 -432 C 442 -430 419 -429 407 -429 C 395 -429 372 -430 360 -432 L 358 -429 C 365.79998779296875 -371.79998779296875 367 -325 367 -249 L 367 -151 C 336.5 -99.5 279 -46 230 -46 C 195.5 -46 163 -57 163 -150 L 163 -249 C 163 -324 164 -376 172 -429 L 170 -432 C 158 -430 135 -429 123 -429 C 111 -429 88 -430 76 -432 L 74 -429 C 82 -372 83 -325 83 -249 L 83 -129 C 83 -60 115 10 214 10 C 276 10 332 -41 365 -92 "/>
</symbol>
<symbol overflow="visible" id="0.84">
<path d="M 50 -101 L 33 -17 C 90 3 146 10 184 10 C 322 10 354 -72 354 -127 C 354 -209 289 -241 218 -258 C 180.1999969482422 -267.1000061035156 125 -286 125 -336 C 125 -377 158 -399 201 -399 C 253 -399 285 -358 308 -331 L 322 -332 L 342 -406 L 340 -409 C 311 -424 256 -439 205 -439 C 131 -439 54 -400 54 -317 C 54 -237 113.69999694824219 -210.60000610351562 174 -194 C 232 -178 275 -162 275 -113 C 275 -60 236 -30 183 -30 C 135 -30 93 -63 65 -102 "/>
</symbol>
<symbol overflow="visible" id="0.38">
<path d="M 190 -200 L 190 -317 C 238 -317 344 -314 413 -307 L 416 -310 C 414 -319 413 -333 413 -342 C 413 -351 414 -365 416 -374 L 413 -377 C 354 -372 308 -367 190 -367 L 190 -445 C 190 -462 191 -565 198 -589 C 332 -589 470 -577 470 -577 L 472 -581 C 471 -589 470 -598 470 -607 C 470 -615 471 -631 472 -645 L 470 -648 C 454 -646 431 -645 410 -645 L 147 -645 C 113 -645 96 -648 96 -648 L 94 -645 C 102 -588 104 -520 104 -445 L 104 -200 C 104 -125 102 -54 94 0 L 95 3 C 95 3 112 0 147 0 L 420 0 C 441 0 464 1 480 3 L 482 0 C 481 -14 480 -21 480 -31 C 480 -41 481 -56 482 -64 L 480 -68 C 480 -68 332 -56 198 -56 C 191 -80 190 -183 190 -200 "/>
</symbol>
<symbol overflow="visible" id="0.72">
<path d="M 101 104 C 101 70.89999389648438 131 34 166 15 C 195.5 15 241.1999969482422 12 255 12 C 303 12 333.6000061035156 12.899993896484375 361 29 C 390 46 400 75 400 101 C 400 162 318 194 232 194 C 167 194 101 172 101 104 M 390 -285 C 390 -354 363 -386 339.6000061035156 -401.3999938964844 C 369.70001220703125 -399 402.79998779296875 -395.20001220703125 444 -391 L 447 -394 C 445 -403 444 -411 444 -420 C 444 -429 445 -437 447 -446 L 444 -449 C 396.20001220703125 -444.8999938964844 360.8999938964844 -434.29998779296875 286.29998779296875 -430.3999938964844 C 268.3999938964844 -436 246.5 -439 225 -439 C 146 -439 55 -386.1000061035156 55 -287 C 55 -212 98 -178 126 -162 C 97 -142 62 -113 62 -79 C 62 -38 86 -2 139.89999389648438 7.3000030517578125 C 112 18.699996948242188 80.89999389648438 38 55 58 C 42.5 77 32 105.30000305175781 32 124 C 32 202.6999969482422 118 237 224 237 C 380.1000061035156 237 473 171.6999969482422 473 78 C 473 33.899993896484375 459 2.899993896484375 431 -21 C 393.5 -53 325 -54 290 -54 C 273 -54 233 -52 210 -49 C 196 -48 186 -47 181 -47 C 153 -47 123 -51 123 -94 C 123 -114 128 -131 150 -150 C 163 -143 193.89999389648438 -136 224 -136 C 328 -136 390 -206.1999969482422 390 -285 M 312 -284 C 312 -223.3000030517578 287 -176 227 -176 C 155 -176 133 -223 133 -292 C 133 -358 163 -401 221 -401 C 286 -401 312 -355 312 -284 "/>
</symbol>
<symbol overflow="visible" id="0.77">
<path d="M 90 -200 C 90 -125.5 88.5 -53.5 81 0 L 83 3 C 95 1 118 0 130 0 C 142 0 165 1 177 3 L 179 0 C 171.1999969482422 -57 170 -124.80000305175781 170 -200 L 170 -500 C 170 -575 174.3000030517578 -624.7000122070312 179 -688 C 179 -695 176.3000030517578 -698 170 -698 C 144.89999389648438 -688 123.5 -681 83 -678 L 81 -675 C 88.69999694824219 -632.2999877929688 90 -558 90 -482 "/>
</symbol>
<symbol overflow="visible" id="0.73">
<path d="M 170 -352 L 170 -501 C 170 -575 174.1999969482422 -626.5 179 -688 C 179 -695 176.3000030517578 -698 170 -698 C 144.89999389648438 -688 123.5 -681 83 -678 L 81 -675 C 88.69999694824219 -632.2999877929688 90 -557 90 -481 L 90 -180 C 90 -105.5 88.80000305175781 -56 81 0 L 83 3 C 95 1 118 0 130 0 C 142 0 165 1 177 3 L 179 0 C 171.5 -57.19999694824219 170 -104 170 -180 L 170 -297 C 221 -357 279.5 -379 315 -379 C 366 -379 387 -359 387 -278 L 387 -180 C 387 -105 386 -53.79998779296875 378 0 L 380 3 C 392 1 415 0 427 0 C 439 0 462 1 474 3 L 476 0 C 468 -57.19999694824219 467 -104 467 -180 C 467 -212 469 -249 469 -281 C 469 -385 435 -439 345 -439 C 307 -439 236 -424 172 -349 "/>
</symbol>
<symbol overflow="visible" id="0.40">
<path d="M 546 -117 L 546 -72 C 512 -40 453 -34 399 -34 C 221 -34 155 -195 155 -327 C 155 -502 252 -614 387 -614 C 477 -614 554 -564 599 -488 L 611 -489 C 614.5999755859375 -540 620.2999877929688 -567 631 -605 L 629 -608 C 629 -608 523 -658 401 -658 C 229 -658 52 -537 52 -317 C 52 -144 175 10 376 10 C 492.5 10 574.5 -23.399993896484375 642 -80 L 642 -83 C 633.2999877929688 -93.69999694824219 632 -120 632 -131 L 632 -137 C 632 -212 634 -254 642 -307 L 641 -310 C 641 -310 624 -307 589 -307 C 555 -307 538 -310 538 -310 L 536 -307 C 544 -250 546 -192 546 -117 "/>
</symbol>
<symbol overflow="visible" id="0.70">
<path d="M 125 -273 C 142 -377 207.5 -399 239 -399 C 278.5 -399 323 -362 323 -287 C 323 -278 319 -273 309 -273 M 392 -104 C 357 -66 310 -49 255 -49 C 220.8000030517578 -49 173.5 -62 146 -106 C 128.39999389648438 -134.10000610351562 122 -174.89999389648438 122 -233 L 394 -233 C 405 -233 412 -239 412 -250 C 412 -334 371 -439 239 -439 C 136 -439 34 -356 34 -209 C 34 -152.3000030517578 45.5 -96.19999694824219 79 -56 C 113.39999389648438 -14.699996948242188 170.60000610351562 10 238 10 C 310 10 374 -27 412 -79 "/>
</symbol>
<symbol overflow="visible" id="0.78">
<path d="M 162 -352 L 162 -425 C 162 -432.70001220703125 160.6999969482422 -435 156 -435 C 133.5 -430.5 97.69999694824219 -429.70001220703125 75 -432 L 73 -429 C 80 -385.70001220703125 82 -310 82 -235 L 82 -180 C 82 -105 81 -54 73 0 L 75 3 C 87 1 110 0 122 0 C 134 0 157 1 169 3 L 171 0 C 163 -57 162 -104 162 -180 L 162 -301 C 209 -349 265 -379 300 -379 C 338 -379 366 -357 366 -290 L 366 -180 C 366 -105 365 -54 357 0 L 359 3 C 371 1 394 0 406 0 C 418 0 441 1 453 3 L 455 0 C 447 -57 446 -104 446 -180 L 446 -281 C 446 -295 446 -307 445 -319 C 493 -372 533 -379 572 -379 C 626 -379 652 -357 652 -290 L 652 -180 C 652 -105 651 -54 643 0 L 645 3 C 657 1 680 0 692 0 C 704 0 727 1 739 3 L 741 0 C 733 -57 732 -104 732 -180 L 732 -280 C 732 -369 716 -439 608 -439 C 554 -439 496 -420 439 -360 C 430 -408 389 -439 333 -439 C 271 -439 212 -399 165 -349 "/>
</symbol>
</defs>
<a xlink:href="http://tagul.com/go?tag=Ukrainian" target="_top">
	<t:tag>Ukrainian</t:tag>
	<g transform="matrix(0.038418078268060235,0,0,0.038418078268060235,20.0898322199195,62.215818631106046)" fill="#000000">
		<rect x="-22.820002517700203" y="-814.8200025177002" width="4179.6400050354005" height="941.6400202941895"/>
		<use xlink:href="#0.54" x="0" y="0"/>
		<use xlink:href="#0.76" x="692" y="0"/>
		<use xlink:href="#0.83" x="1195" y="0"/>
		<use xlink:href="#0.66" x="1550" y="0"/>
		<use xlink:href="#0.74" x="2031" y="0"/>
		<use xlink:href="#0.79" x="2291" y="0"/>
		<use xlink:href="#0.74" x="2830" y="0"/>
		<use xlink:href="#0.66" x="3090" y="0"/>
		<use xlink:href="#0.79" x="3571" y="0"/>
	</g>
</a>
<a xlink:href="http://tagul.com/go?tag=Russian" target="_top">
	<t:tag>Russian</t:tag>
	<g transform="matrix(0.030815709259500893,0,0,0.030815709259500893,38.44791327431395,84.89184243719458)" fill="#000000">
		<rect x="-15.2300025177002" y="-761.2300025177002" width="3263.4600050354" height="880.4600202941895"/>
		<use xlink:href="#0.51" x="0" y="0"/>
		<use xlink:href="#0.86" x="600" y="0"/>
		<use xlink:href="#0.84" x="1137" y="0"/>
		<use xlink:href="#0.84" x="1533" y="0"/>
		<use xlink:href="#0.74" x="1929" y="0"/>
		<use xlink:href="#0.66" x="2189" y="0"/>
		<use xlink:href="#0.79" x="2670" y="0"/>
	</g>
</a>
<a xlink:href="http://tagul.com/go?tag=English" target="_top">
	<t:tag>English</t:tag>
	<g transform="matrix(0.021818181818181816,0,0,0.021818181818181816,89.96127776447281,29.355152767001737)" fill="#000000">
		<rect x="-60.275000000000006" y="-852.275" width="3174.55" height="1243.55"/>
		<use xlink:href="#0.38" x="0" y="0"/>
		<use xlink:href="#0.79" x="538" y="0"/>
		<use xlink:href="#0.72" x="1077" y="0"/>
		<use xlink:href="#0.77" x="1576" y="0"/>
		<use xlink:href="#0.74" x="1828" y="0"/>
		<use xlink:href="#0.84" x="2088" y="0"/>
		<use xlink:href="#0.73" x="2484" y="0"/>
	</g>
</a>
<a xlink:href="http://tagul.com/go?tag=German" target="_top">
	<t:tag>German</t:tag>
	<g transform="matrix(0.016541915789805982,0,0,0.016541915789805982,33.034312322817684,33.859580589692335)" fill="#000000">
		<rect x="-58.220002517700195" y="-768.2200025177002" width="3450.4400050354" height="888.4400202941895"/>
		<use xlink:href="#0.40" x="0" y="0"/>
		<use xlink:href="#0.70" x="717" y="0"/>
		<use xlink:href="#0.83" x="1170" y="0"/>
		<use xlink:href="#0.78" x="1525" y="0"/>
		<use xlink:href="#0.66" x="2332" y="0"/>
		<use xlink:href="#0.79" x="2813" y="0"/>
	</g>
</a>
</svg>