<?xml version="1.0" encoding="UTF-8"?>
<svg width="100%" height="100%" viewBox="2.8249999999999975 2.375 194.9323390302493 95.025" version="1.1" xmlns="http://www.w3.org/2000/svg" xmlns:xlink="http://www.w3.org/1999/xlink" xmlns:t="http://www.tagul.com/schema">
<style type="text/css">svg { background-color: rgb(255, 255, 255); } rect { opacity: 0; }</style>
<defs>
<symbol overflow="visible" id="0.34">
<path d="M 407.29998779296875 -275.5 C 374.29998779296875 -274 332.70001220703125 -273 303 -273 C 274.1000061035156 -273 220.60000610351562 -274.70001220703125 198.60000610351562 -275.8999938964844 L 304 -521.7999877929688 L 306 -521.7999877929688 C 347.1000061035156 -427.3999938964844 380.3999938964844 -345.20001220703125 407.29998779296875 -275.5 M 179 -228.3000030517578 C 204 -230.00001525878906 273.5 -231.00001525878906 308 -231.00001525878906 C 346 -231.00001525878906 401 -230.00001525878906 425.29998779296875 -228.30001831054688 C 474.29998779296875 -97.20001220703125 496.8999938964844 -19.20001220703125 503 2.9999847412109375 C 520 -0.0000152587890625 536 -0.0000152587890625 553 -0.0000152587890625 C 570 -0.0000152587890625 596 -0.0000152587890625 613 2.9999847412109375 C 563 -98.00001525878906 431 -439.00001525878906 339 -658.0000152587891 L 311 -658.0000152587891 C 215 -436.00001525878906 117 -218.00001525878906 16 2.9999847412109375 C 28 -0.0000152587890625 40 -0.0000152587890625 51 -0.0000152587890625 C 62 -0.0000152587890625 84 -0.0000152587890625 96 2.9999847412109375 C 112.39999389648438 -58.30000305175781 143.3000030517578 -140.80001831054688 179 -228.30001831054688 "/>
</symbol>
<symbol overflow="visible" id="0.77">
<path d="M 90 -200 C 90 -125.5 88.5 -53.5 81 0 L 83 3 C 95 1 118 0 130 0 C 142 0 165 1 177 3 L 179 0 C 171.1999969482422 -57 170 -124.80000305175781 170 -200 L 170 -500 C 170 -575 174.3000030517578 -624.7000122070312 179 -688 C 179 -695 176.3000030517578 -698 170 -698 C 144.89999389648438 -688 123.5 -681 83 -678 L 81 -675 C 88.69999694824219 -632.2999877929688 90 -558 90 -482 "/>
</symbol>
<symbol overflow="visible" id="0.72">
<path d="M 101 104 C 101 70.89999389648438 131 34 166 15 C 195.5 15 241.1999969482422 12 255 12 C 303 12 333.6000061035156 12.899993896484375 361 29 C 390 46 400 75 400 101 C 400 162 318 194 232 194 C 167 194 101 172 101 104 M 390 -285 C 390 -354 363 -386 339.6000061035156 -401.3999938964844 C 369.70001220703125 -399 402.79998779296875 -395.20001220703125 444 -391 L 447 -394 C 445 -403 444 -411 444 -420 C 444 -429 445 -437 447 -446 L 444 -449 C 396.20001220703125 -444.8999938964844 360.8999938964844 -434.29998779296875 286.29998779296875 -430.3999938964844 C 268.3999938964844 -436 246.5 -439 225 -439 C 146 -439 55 -386.1000061035156 55 -287 C 55 -212 98 -178 126 -162 C 97 -142 62 -113 62 -79 C 62 -38 86 -2 139.89999389648438 7.3000030517578125 C 112 18.699996948242188 80.89999389648438 38 55 58 C 42.5 77 32 105.30000305175781 32 124 C 32 202.6999969482422 118 237 224 237 C 380.1000061035156 237 473 171.6999969482422 473 78 C 473 33.899993896484375 459 2.899993896484375 431 -21 C 393.5 -53 325 -54 290 -54 C 273 -54 233 -52 210 -49 C 196 -48 186 -47 181 -47 C 153 -47 123 -51 123 -94 C 123 -114 128 -131 150 -150 C 163 -143 193.89999389648438 -136 224 -136 C 328 -136 390 -206.1999969482422 390 -285 M 312 -284 C 312 -223.3000030517578 287 -176 227 -176 C 155 -176 133 -223 133 -292 C 133 -358 163 -401 221 -401 C 286 -401 312 -355 312 -284 "/>
</symbol>
<symbol overflow="visible" id="0.80">
<path d="M 38 -205 C 38 -85 117 10 250 10 C 382 10 462 -83 462 -214 C 462 -350 389 -439 254 -439 C 123 -439 38 -347 38 -205 M 247 -399 C 353 -399 374 -317 374 -196 C 374 -100.89999389648438 326 -30 259 -30 C 153 -30 126 -145 126 -222 C 126 -309 153 -399 247 -399 "/>
</symbol>
<symbol overflow="visible" id="0.83">
<path d="M 167 -334 L 167 -425 C 167 -432.70001220703125 165.6999969482422 -435 161 -435 C 138.5 -430.5 102.69999694824219 -429.70001220703125 80 -432 L 78 -429 C 85 -385.70001220703125 87 -310 87 -235 L 87 -180 C 87 -105 85.80000305175781 -53.79998779296875 78 0 L 80 3 C 92 1 115 0 127 0 C 139 0 162 1 174 3 L 176 0 C 168.5 -57 167 -104 167 -180 L 167 -232 C 167 -274 179.5 -298 201 -331 C 215.5 -353.29998779296875 238 -366 257 -366 C 277 -366 296 -364 309 -352 L 317 -354 L 337 -428 L 333 -432 C 316 -437 315 -439 297 -439 C 243 -439 214 -408 170 -332 "/>
</symbol>
<symbol overflow="visible" id="0.74">
<path d="M 80 -597 C 80 -570 104 -546 131 -546 C 158 -546 182 -570 182 -597 C 182 -624 158 -648 131 -648 C 104 -648 80 -624 80 -597 M 90 -235 L 90 -180 C 90 -105 88.19999694824219 -54 81 0 L 83 3 C 95 1 118 0 130 0 C 142 0 165 1 177 3 L 179 0 C 171.8000030517578 -56.79998779296875 170 -104 170 -180 L 170 -251 C 170 -326 172.5 -362 179 -423 C 179 -432 177.8000030517578 -433 170 -433 C 147.3000030517578 -430.70001220703125 104.19999694824219 -430.29998779296875 83 -432 L 81 -429 C 87.30000305175781 -386.20001220703125 90 -310 90 -235 "/>
</symbol>
<symbol overflow="visible" id="0.85">
<path d="M 95 -429 C 74.5 -429.1000061035156 53.399993896484375 -429.3999938964844 41 -431 C 34.29998779296875 -414.70001220703125 28.699996948242188 -405 19 -390 L 24 -383 C 41.19999694824219 -384.29998779296875 72.19999694824219 -384.8999938964844 95 -385 L 95 -248 C 95 -188 92 -116 92 -86 C 92 -21 134 10 180 10 C 222 10 254 0 296 -27 L 283.70001220703125 -51.69999694824219 C 253 -40.99998474121094 230 -39.99998474121094 205 -43.99998474121094 C 181.3000030517578 -47.79997253417969 172 -71.89997863769531 172 -125.99998474121094 C 172 -155.99998474121094 175 -198.99998474121094 175 -258.99998474121094 L 175 -384.99998474121094 L 213 -384.99998474121094 C 237 -384.99998474121094 271.70001220703125 -384.2999725341797 285 -382.99998474121094 C 288 -398.99998474121094 291 -409.2999725341797 297 -423.99998474121094 L 292 -430.99998474121094 C 274 -430.2999725341797 245 -428.99998474121094 222 -428.99998474121094 L 175 -428.99998474121094 C 175 -503.7999725341797 175.5 -516.9999847412109 180 -574.9999847412109 C 180 -582.2999725341797 177.3000030517578 -584.9999847412109 171 -584.9999847412109 C 145.89999389648438 -574.9999847412109 133.5 -564.4999847412109 101 -559.9999847412109 L 99 -556.9999847412109 C 97 -522.2999725341797 95 -486.99998474121094 95 -428.99998474121094 "/>
</symbol>
<symbol overflow="visible" id="0.73">
<path d="M 170 -352 L 170 -501 C 170 -575 174.1999969482422 -626.5 179 -688 C 179 -695 176.3000030517578 -698 170 -698 C 144.89999389648438 -688 123.5 -681 83 -678 L 81 -675 C 88.69999694824219 -632.2999877929688 90 -557 90 -481 L 90 -180 C 90 -105.5 88.80000305175781 -56 81 0 L 83 3 C 95 1 118 0 130 0 C 142 0 165 1 177 3 L 179 0 C 171.5 -57.19999694824219 170 -104 170 -180 L 170 -297 C 221 -357 279.5 -379 315 -379 C 366 -379 387 -359 387 -278 L 387 -180 C 387 -105 386 -53.79998779296875 378 0 L 380 3 C 392 1 415 0 427 0 C 439 0 462 1 474 3 L 476 0 C 468 -57.19999694824219 467 -104 467 -180 C 467 -212 469 -249 469 -281 C 469 -385 435 -439 345 -439 C 307 -439 236 -424 172 -349 "/>
</symbol>
<symbol overflow="visible" id="0.78">
<path d="M 162 -352 L 162 -425 C 162 -432.70001220703125 160.6999969482422 -435 156 -435 C 133.5 -430.5 97.69999694824219 -429.70001220703125 75 -432 L 73 -429 C 80 -385.70001220703125 82 -310 82 -235 L 82 -180 C 82 -105 81 -54 73 0 L 75 3 C 87 1 110 0 122 0 C 134 0 157 1 169 3 L 171 0 C 163 -57 162 -104 162 -180 L 162 -301 C 209 -349 265 -379 300 -379 C 338 -379 366 -357 366 -290 L 366 -180 C 366 -105 365 -54 357 0 L 359 3 C 371 1 394 0 406 0 C 418 0 441 1 453 3 L 455 0 C 447 -57 446 -104 446 -180 L 446 -281 C 446 -295 446 -307 445 -319 C 493 -372 533 -379 572 -379 C 626 -379 652 -357 652 -290 L 652 -180 C 652 -105 651 -54 643 0 L 645 3 C 657 1 680 0 692 0 C 704 0 727 1 739 3 L 741 0 C 733 -57 732 -104 732 -180 L 732 -280 C 732 -369 716 -439 608 -439 C 554 -439 496 -420 439 -360 C 430 -408 389 -439 333 -439 C 271 -439 212 -399 165 -349 "/>
</symbol>
<symbol overflow="visible" id="0.84">
<path d="M 50 -101 L 33 -17 C 90 3 146 10 184 10 C 322 10 354 -72 354 -127 C 354 -209 289 -241 218 -258 C 180.1999969482422 -267.1000061035156 125 -286 125 -336 C 125 -377 158 -399 201 -399 C 253 -399 285 -358 308 -331 L 322 -332 L 342 -406 L 340 -409 C 311 -424 256 -439 205 -439 C 131 -439 54 -400 54 -317 C 54 -237 113.69999694824219 -210.60000610351562 174 -194 C 232 -178 275 -162 275 -113 C 275 -60 236 -30 183 -30 C 135 -30 93 -63 65 -102 "/>
</symbol>
<symbol overflow="visible" id="0.37">
<path d="M 190 -82 L 190 -564 C 190 -599 225 -604 274 -604 C 490 -604 555 -438 555 -284 C 555 -82 440 -42 299 -42 C 201 -42 190 -50 190 -82 M 147 -645 C 113 -645 96 -648 96 -648 L 94 -645 C 102 -588 104 -520 104 -445 L 104 -200 C 104 -125 102 -54 94 0 L 95 3 C 95 3 112 0 147 0 C 218 0 227 2 330 2 C 471 2 658 -62 658 -308 C 658 -494 504 -648 312 -648 C 248 -648 211 -645 147 -645 "/>
</symbol>
<symbol overflow="visible" id="0.70">
<path d="M 125 -273 C 142 -377 207.5 -399 239 -399 C 278.5 -399 323 -362 323 -287 C 323 -278 319 -273 309 -273 M 392 -104 C 357 -66 310 -49 255 -49 C 220.8000030517578 -49 173.5 -62 146 -106 C 128.39999389648438 -134.10000610351562 122 -174.89999389648438 122 -233 L 394 -233 C 405 -233 412 -239 412 -250 C 412 -334 371 -439 239 -439 C 136 -439 34 -356 34 -209 C 34 -152.3000030517578 45.5 -96.19999694824219 79 -56 C 113.39999389648438 -14.699996948242188 170.60000610351562 10 238 10 C 310 10 374 -27 412 -79 "/>
</symbol>
<symbol overflow="visible" id="0.79">
<path d="M 460 -180 C 460 -212 462 -249 462 -281 C 462 -385 428 -439 338 -439 C 300 -439 229 -424 165 -349 L 163 -352 L 163 -425 C 162.8000030517578 -432.70001220703125 161.6999969482422 -435 157 -435 C 134.5 -430.5 98.69999694824219 -429.70001220703125 76 -432 L 74 -429 C 81 -385.70001220703125 83 -310 83 -235 L 83 -180 C 83 -105 82 -54 74 0 L 76 3 C 88 1 111 0 123 0 C 135 0 158 1 170 3 L 172 0 C 164 -57 163 -104 163 -180 L 163 -297 C 214 -357 272 -379 308 -379 C 359 -379 380 -359 380 -278 L 380 -180 C 380 -105 378.20001220703125 -53.79998779296875 371 0 L 373 3 C 385 1 408 0 420 0 C 432 0 455 1 467 3 L 469 0 C 461.20001220703125 -57 460 -104 460 -180 "/>
</symbol>
<symbol overflow="visible" id="0.1">
<path d=""/>
</symbol>
<symbol overflow="visible" id="0.49">
<path d="M 190 -565 C 190 -594 208 -609 280 -609 C 349 -609 422 -590 422 -471 C 422 -356 366 -319 269 -319 C 244 -319 203 -322 190 -329 M 104 -445 L 104 -200 C 104 -125 102 -54 94 0 L 96 3 C 108 1 135 0 147 0 C 159 0 186 1 198 3 L 200 0 C 192 -57 190 -125 190 -200 L 190 -286 C 212 -279 239 -276 274 -276 C 456 -276 519 -391 519 -476 C 519 -550 472 -652 287 -652 C 261 -652 177 -645 147 -645 C 135 -645 108 -646 96 -648 L 94 -645 C 102 -588 104 -520 104 -445 "/>
</symbol>
<symbol overflow="visible" id="0.66">
<path d="M 310 -225 L 306 -106 C 306 -93 300 -86 292 -80 C 264 -59 230 -41 200 -41 C 155 -41 126 -71 126 -102 C 126 -147 147 -181 225 -202 M 310.1000061035156 -48 C 321.5 -8.899993896484375 351.3999938964844 10 388 10 C 413.20001220703125 10 444 4 467.6000061035156 -21 L 460.20001220703125 -45.69999694824219 C 449.29998779296875 -41.89997863769531 440.79998779296875 -40.49998474121094 433.20001220703125 -40.49998474121094 C 423.29998779296875 -40.49998474121094 410 -42.39997863769531 403.8999938964844 -47.99998474121094 C 393.70001220703125 -57.29997253417969 387.20001220703125 -81.49998474121094 387.20001220703125 -125.99998474121094 C 387.20001220703125 -154.99998474121094 390 -265.99998474121094 390 -276.99998474121094 C 390 -411.99998474121094 301 -438.99998474121094 225 -438.99998474121094 C 149 -438.99998474121094 103 -401.99998474121094 78 -380.99998474121094 L 75 -376.99998474121094 L 92 -309.99998474121094 L 105 -308.99998474121094 C 133 -353.99998474121094 167 -393.99998474121094 215 -393.99998474121094 C 251 -393.99998474121094 311 -388.99998474121094 311 -275.99998474121094 C 311 -268.99998474121094 307 -264.99998474121094 304 -263.99998474121094 L 211 -242.99998474121094 C 109 -219.99998474121094 45 -165.99998474121094 45 -97.99998474121094 C 45 -23.999984741210938 96 10.000015258789062 170 10.000015258789062 C 225 10.000015258789062 253 -2.9999847412109375 306 -47.99998474121094 "/>
</symbol>
<symbol overflow="visible" id="0.43">
<path d="M 140 -95 C 140 -7 135 112 56 112 C 27 112 9 97 -2 77 L -13 78 C -20 105 -30 141 -41 160 L -40 163 C -32 168 -14 172 5 172 C 68 172 121 150 163 96 C 216 27 226 -2.5 226 -117 L 226 -445 C 226 -520 228 -592 236 -645 L 235 -648 C 223 -646 195 -645 183 -645 C 171 -645 144 -646 132 -648 L 130 -645 C 138 -588 140 -520 140 -445 "/>
</symbol>
<symbol overflow="visible" id="0.87">
<path d="M 202 3 C 212 0 223 0 233 0 C 243 0 254 0 263 3 C 315 -143 377 -285 442 -432 C 433 -429 414 -429 404 -429 C 394 -429 379 -429 370 -432 C 329.5 -318.8999938964844 294.70001220703125 -188.10000610351562 248.8000030517578 -90.10000610351562 L 246.8000030517578 -90.10000610351562 C 196.70001220703125 -204.60003662109375 164.30001831054688 -317.3000183105469 128.00001525878906 -432.0000305175781 C 115.00001525878906 -429.0000305175781 92.00001525878906 -429.0000305175781 78.00001525878906 -429.0000305175781 C 62.00001525878906 -429.0000305175781 36.00001525878906 -429.0000305175781 20.000015258789062 -432.0000305175781 C 87.00001525878906 -285.0000305175781 146.00001525878906 -143.00003051757812 202.00001525878906 2.999969482421875 "/>
</symbol>
<symbol overflow="visible" id="0.48">
<path d="M 355 -614 C 496 -614 586 -518 586 -310 C 586 -131 503 -34 389 -34 C 269 -34 155 -135 155 -327 C 155 -537 259 -614 355 -614 M 689 -329 C 689 -527 548 -658 368 -658 C 189 -658 52 -506 52 -310 C 52 -113 197 10 369 10 C 560 10 689 -129 689 -329 "/>
</symbol>
<symbol overflow="visible" id="0.41">
<path d="M 536 -445 L 536 -365 L 190 -365 L 190 -445 C 190 -520 192 -592 200 -645 L 199 -648 C 187 -646 159 -645 147 -645 C 135 -645 108 -646 96 -648 L 94 -645 C 102 -588 104 -520 104 -445 L 104 -200 C 104 -125 102 -54 94 0 L 95 3 C 107 1 135 0 147 0 C 159 0 186 1 198 3 L 200 0 C 192 -57 190 -125 190 -200 L 190 -321 L 536 -321 L 536 -200 C 536 -125 534 -54 526 0 L 527 3 C 539 1 567 0 579 0 C 591 0 618 1 630 3 L 632 0 C 624 -57 622 -125 622 -200 L 622 -445 C 622 -520 624 -592 632 -645 L 631 -648 C 619 -646 591 -645 579 -645 C 567 -645 540 -646 528 -648 L 526 -645 C 534 -588 536 -520 536 -445 "/>
</symbol>
<symbol overflow="visible" id="0.52">
<path d="M 242 -34 C 186 -34 114 -83 83 -142 L 73 -141 C 69 -105 58 -68 50 -38 L 52 -35 C 52 -35 117 10 234 10 C 357 10 452 -65 452 -181 C 452 -297 353.8999938964844 -350.79998779296875 273 -381 C 222 -400 151 -429 151 -512 C 151 -548 171 -588 197 -602 C 214 -611 235 -614 258 -614 C 313 -614 367 -571 394 -509 L 404 -510 C 408 -546 418 -580 427 -610 L 425 -613 C 425 -613 383 -658 266 -658 C 239 -658 209 -653 180 -641 C 121 -616 70 -558 70 -485 C 70 -380 159 -331 242 -296 C 307 -269 359 -236 359 -151 C 359 -76 301 -34 242 -34 "/>
</symbol>
<symbol overflow="visible" id="0.68">
<path d="M 250 -399 C 288.5 -399 323.5 -370.5 350 -325 L 363 -326 L 386 -408 L 384 -411 C 353 -427 301 -439 251 -439 C 147 -439 38 -354 38 -218 C 38 -78.89999389648438 117 10 239 10 C 299 10 346 -10 386 -61 L 367 -82 L 363 -82 C 325 -48 293.20001220703125 -40 256 -40 C 183 -40 126 -106 126 -223 C 126 -333 184 -399 250 -399 "/>
</symbol>
<symbol overflow="visible" id="0.86">
<path d="M 365 -92 L 369 -89 L 374 0 C 374 2 375.20001220703125 3 378 3 C 391.29998779296875 1.3000030517578125 403 0 417.5 0 C 430.1000061035156 0 449 1 462 3 L 464 0 C 456 -43 447 -117 447 -192 L 447 -249 C 447 -324 448 -376 456 -429 L 454 -432 C 442 -430 419 -429 407 -429 C 395 -429 372 -430 360 -432 L 358 -429 C 365.79998779296875 -371.79998779296875 367 -325 367 -249 L 367 -151 C 336.5 -99.5 279 -46 230 -46 C 195.5 -46 163 -57 163 -150 L 163 -249 C 163 -324 164 -376 172 -429 L 170 -432 C 158 -430 135 -429 123 -429 C 111 -429 88 -430 76 -432 L 74 -429 C 82 -372 83 -325 83 -249 L 83 -129 C 83 -60 115 10 214 10 C 276 10 332 -41 365 -92 "/>
</symbol>
<symbol overflow="visible" id="0.54">
<path d="M 544 -445 L 544 -277 C 544 -165 527 -46 358 -46 C 190 -46 190 -215 190 -269 L 190 -445 C 190 -520 192 -592 200 -645 L 198 -648 C 186 -646 159 -645 147 -645 C 135 -645 108 -646 96 -648 L 94 -645 C 102 -588 104 -520 104 -445 L 104 -236 C 104 -32 247 10 337 10 C 542 10 598 -117 598 -295 L 598 -445 C 598 -520 600 -592 608 -645 L 606 -648 C 594 -646 583 -645 571 -645 C 559 -645 548 -646 536 -648 L 534 -645 C 542 -588 544 -520 544 -445 "/>
</symbol>
<symbol overflow="visible" id="0.69">
<path d="M 361 -113 C 324.5 -66.5 278.5 -42 238 -42 C 184 -42 138 -96 138 -221 C 138 -371 217.60000610351562 -399 266 -399 C 313 -399 337 -379 361 -341 M 361 -58 L 363 -58 L 368 0 C 368 2 371 3 377 3 C 390.29998779296875 1.3000030517578125 397 0 411.5 0 C 424.1000061035156 0 443 1 456 3 L 458 0 C 450 -43 441 -117 441 -192 L 441 -500 C 441 -574 445 -626.2999877929688 450 -688 C 450 -695 447.29998779296875 -698 441 -698 C 415.8999938964844 -688 394.5 -681 354 -678 L 352 -675 C 359.70001220703125 -632.2999877929688 361 -558 361 -482 L 361 -417 C 338 -430 297 -439 277 -439 C 146.8000030517578 -439 51 -349 51 -213 C 51 -90 124 10 232 10 C 280 10 325 -11.5 361 -58 "/>
</symbol>
<symbol overflow="visible" id="0.81">
<path d="M 162 -294 C 184 -347 243 -393 282 -393 C 350 -393 385 -331 385 -218 C 385 -136 362 -30 255 -30 C 239 -30 197 -34 162 -75 M 162 -352 L 162 -425 C 162 -432.70001220703125 160.6999969482422 -435 156 -435 C 133.5 -430.5 97.69999694824219 -429.70001220703125 75 -432 L 73 -429 C 80 -385.70001220703125 82 -310 82 -235 L 82 32 C 82 106.5 80.19999694824219 178.1999969482422 73 232 L 75 235 C 87 233 110 232 122 232 C 134 232 157 233 169 235 L 171 232 C 163.8000030517578 175 162 107.19999694824219 162 32 L 162 -12 C 188 2 225 10 261 10 C 393 10 473 -90.10000610351562 473 -231 C 473 -337 411 -439 299 -439 C 260 -439 210 -419 164 -349 "/>
</symbol>
<symbol overflow="visible" id="0.46">
<path d="M 193 -662 C 158 -460 103 -184 64 3 C 75 0 85 0 97 0 C 108 0 116 0 127 3 C 142 -102 176.3000030517578 -325.1000061035156 200.8000030517578 -476.20001220703125 L 205.1999969482422 -476.20001220703125 C 280.7999725341797 -317 350.99998474121094 -155 414.99998474121094 0 L 433.99998474121094 0 C 505.99998474121094 -164.1999969482422 576.9999847412109 -316 655.9999847412109 -473 L 659.4999847412109 -472.8999938964844 C 680.6999969482422 -315.20001220703125 700.2999725341797 -162.8000030517578 714.9999847412109 3 C 729.9999847412109 0 748.9999847412109 0 763.9999847412109 0 C 778.9999847412109 0 804.9999847412109 0 819.9999847412109 3 C 783.9999847412109 -211 753.9999847412109 -419 725.9999847412109 -662 L 700.9999847412109 -662 L 458.3999786376953 -166 L 449.99998474121094 -166.3000030517578 C 371.2999725341797 -330.00001525878906 299.7999725341797 -490.2000274658203 225.99998474121094 -662.0000152587891 "/>
</symbol>
<symbol overflow="visible" id="0.90">
<path d="M 28 -432 C 67.80000305175781 -343.20001220703125 186.60000610351562 -85.10000610351562 222 10 C 190 84.69999694824219 149.1999969482422 161.6999969482422 104 237 C 114 234 129 232 139 232 C 149 232 178 234 188 237 C 226 112 445 -365 478 -432 C 468 -429 445 -429 435 -429 C 425 -429 406 -429 396 -432 C 360 -319 313.29998779296875 -191.1999969482422 264.70001220703125 -87.60000610351562 L 262.70001220703125 -87.60000610351562 C 213.5 -206.50003051757812 166.39999389648438 -317.8000183105469 129 -432.0000305175781 C 116 -429.0000305175781 94 -429.0000305175781 80 -429.0000305175781 C 67 -429.0000305175781 42 -429.0000305175781 28 -432.0000305175781 "/>
</symbol>
<symbol overflow="visible" id="0.50">
<path d="M 355 -614 C 496 -614 586 -518 586 -310 C 586 -131 503 -34 389 -34 C 269 -34 155 -135 155 -327 C 155 -537 259 -614 355 -614 M 560.7000122070312 -49.20001220703125 C 641.2000122070312 -108.10000610351562 689 -207.3000030517578 689 -329 C 689 -527 548 -658 368 -658 C 189 -658 52 -506 52 -310 C 52 -113 197 10 369 10 C 410.3999938964844 10 448.8999938964844 3.5 483.79998779296875 -8.800003051757812 C 613.7000122070312 59.69999694824219 605.2999877929688 77.10000610351562 716 140 C 735 125 774 102 810 83 L 810 77 C 700.2999877929688 39.69999694824219 618.2999877929688 -17.399993896484375 560.7000122070312 -49.19999694824219 "/>
</symbol>
<symbol overflow="visible" id="0.45">
<path d="M 191 -445 C 191 -520 193 -592 201 -645 L 200 -648 C 188 -646 160 -645 148 -645 C 136 -645 109 -646 97 -648 L 95 -645 C 103 -588 105 -520 105 -445 L 105 -200 C 105 -125 103 -54 95 0 L 96 3 C 96 3 114 0 148 0 L 421 0 C 442 0 465 1 481 3 L 483 0 C 482 -14 481 -34 481 -44 C 481 -54 482 -71 483 -79 L 481 -83 C 481 -83 333 -61 199 -61 C 192 -85 191 -183 191 -200 "/>
</symbol>
<symbol overflow="visible" id="0.57">
<path d="M 564 3 C 483 -111.39999389648438 418.29998779296875 -211.89999389648438 331.5 -345.3999938964844 C 422.8999938964844 -479.6000061035156 504.79998779296875 -587.2000122070312 548 -648 C 537 -645 517 -645 506 -645 C 495 -645 475 -645 464 -648 C 409.79998779296875 -547.7999877929688 385.6000061035156 -511.79998779296875 302 -390.79998779296875 C 236.5 -491.20001220703125 169.8000030517578 -588.2000122070312 141 -648 C 123 -645 101 -645 84 -645 C 67 -645 45 -645 28 -648 L 244 -321 L 23 3 C 34 0 54 0 65 0 C 77 0 96 0 107 3 C 160.10000610351562 -95.10000610351562 218.10000610351562 -189.1999969482422 274.3999938964844 -274.8999938964844 C 338.29998779296875 -178.3000030517578 395.70001220703125 -97.39999389648438 448 3 C 466 0 488 0 506 0 C 524 0 546 0 564 3 "/>
</symbol>
<symbol overflow="visible" id="0.56">
<path d="M 644 -132 L 642 -132 C 539 -435 495 -585 481 -648 C 464 -645 443 -645 426 -645 C 409 -645 383 -645 366 -648 C 383.70001220703125 -604.2999877929688 415.3999938964844 -520.9000244140625 452.29998779296875 -422.1000061035156 C 411.3999938964844 -321.29998779296875 364 -213.39999389648438 325 -123 L 323 -123 C 188 -434 136 -613 126 -648 C 109 -645 93 -645 76 -645 C 59 -645 33 -645 16 -648 C 66 -547 198 -209 290 10 L 318 10 L 478.5 -351.6000061035156 C 523 -231.5 571.4000244140625 -98.60000610351562 610 10 L 638 10 C 734 -212 832 -427 933 -648 C 921 -645 909 -645 898 -645 C 887 -645 860 -645 848 -648 C 814 -519 716 -298 644 -132 "/>
</symbol>
<symbol overflow="visible" id="0.40">
<path d="M 546 -117 L 546 -72 C 512 -40 453 -34 399 -34 C 221 -34 155 -195 155 -327 C 155 -502 252 -614 387 -614 C 477 -614 554 -564 599 -488 L 611 -489 C 614.5999755859375 -540 620.2999877929688 -567 631 -605 L 629 -608 C 629 -608 523 -658 401 -658 C 229 -658 52 -537 52 -317 C 52 -144 175 10 376 10 C 492.5 10 574.5 -23.399993896484375 642 -80 L 642 -83 C 633.2999877929688 -93.69999694824219 632 -120 632 -131 L 632 -137 C 632 -212 634 -254 642 -307 L 641 -310 C 641 -310 624 -307 589 -307 C 555 -307 538 -310 538 -310 L 536 -307 C 544 -250 546 -192 546 -117 "/>
</symbol>
<symbol overflow="visible" id="0.53">
<path d="M 227 -445 L 227 -200 C 227 -125 225 -54 217 0 L 219 3 C 231 1 258 0 270 0 C 282 0 309 1 321 3 L 323 0 C 315 -57 313 -125 313 -200 L 313 -445 C 313 -462 314 -565 321 -589 C 455 -589 523 -575 523 -575 L 525 -579 C 523 -594 523 -617 525 -645 L 523 -648 C 507 -646 484 -645 463 -645 L 77 -645 C 56 -645 33 -646 17 -648 L 15 -645 C 17 -617 17 -594 15 -579 L 17 -575 C 17 -575 85 -589 219 -589 C 226 -565 227 -462 227 -445 "/>
</symbol>
<symbol overflow="visible" id="0.47">
<path d="M 108 -645 C 117 -455 114 -159 98 0 L 100 3 C 112 1 123 0 135 0 C 147 0 158 1 170 3 L 172 0 C 164 -57 162 -125 162 -200 L 162 -439 C 162 -500 163.89999389648438 -503 201 -455 L 550 -14 C 561 1 577 10 593 10 C 607 10 611 -2 612 -21 C 617 -249 616 -423 632 -645 L 630 -648 C 618 -646 607 -645 595 -645 C 583 -645 572 -646 560 -648 L 558 -645 C 566 -588 568 -520.2999877929688 568 -445 L 568 -178 C 566.5999755859375 -123.60000610351562 552.2999877929688 -146.89999389648438 509 -203 L 166 -647 C 166 -647 156.5 -645 152 -645 C 118 -645 110 -648 110 -648 "/>
</symbol>
<symbol overflow="visible" id="0.67">
<path d="M 162 -81 L 162 -340 C 201 -380 226 -399 267 -399 C 328.1000061035156 -399 382 -348.70001220703125 382 -224 C 382 -100 345 -30 250 -30 C 219 -30 182 -56 162 -81 M 162 -500 C 162 -574 163.3000030517578 -626.7000122070312 168 -688 C 168 -695 165.3000030517578 -698 159 -698 C 133.89999389648438 -688 112.5 -681 72 -678 L 70 -675 C 77.69999694824219 -632.2999877929688 82 -558 82 -482 L 82 -73 C 82 -34 81.19999694824219 -19.800003051757812 77 2 C 83 8 94.5 10 105 10 C 116 -2 127.5 -19 138 -39 C 167 -14 213 10 256 10 C 358 10 471 -62 471 -232 C 471 -354 384 -439 287 -439 C 239 -439 196 -426 162 -389 "/>
</symbol>
<symbol overflow="visible" id="0.36">
<path d="M 380 -658 C 211 -658 52 -512 52 -315 C 52 -142 151 10 366 10 C 458.3999938964844 10 545.2999877929688 -18.699996948242188 612.0999755859375 -99.5 C 611.5 -111 609.5 -133 606 -142 L 599 -145 C 528 -67 468 -41 375 -41 C 248.1999969482422 -41 155 -178 155 -334 C 155 -537 284 -611 366 -611 C 456 -611 529 -575 570 -493 L 582 -494 C 585.5999755859375 -545 589 -562.5 600 -605 L 598 -608 C 598 -608 502 -658 380 -658 "/>
</symbol>
<symbol overflow="visible" id="0.76">
<path d="M 90 -200 C 90 -125.5 88.5 -53.5 81 0 L 83 3 C 95 1 118 0 130 0 C 142 0 165 1 177 3 L 179 0 C 171.1999969482422 -57 170 -124.80000305175781 170 -200 L 170 -210 C 178.1999969482422 -209.8000030517578 202.39999389648438 -206.6999969482422 211 -199 C 276 -131 300 -95 368 3 C 383.29998779296875 1.1999969482421875 417 0 434 0 C 450.70001220703125 0 485 1.1999969482421875 494 3 L 496 0 C 421.6000061035156 -78.60000610351562 368.3999938964844 -122.80000305175781 273 -238 C 312.3999938964844 -278.8999938964844 410 -373.8999938964844 475 -429 L 473 -432 C 454 -429 399 -429 372 -429 C 328.8999938964844 -366.5 253.60000610351562 -285.5 214 -255 C 201.3000030517578 -245.3000030517578 183 -241.1999969482422 170 -240.10000610351562 L 170 -500 C 170 -575 174.3000030517578 -624.7000122070312 179 -688 C 179 -695 176.3000030517578 -698 170 -698 C 144.89999389648438 -688 123.5 -681 83 -678 L 81 -675 C 88.69999694824219 -632.2999877929688 90 -558 90 -482 "/>
</symbol>
<symbol overflow="visible" id="0.88">
<path d="M 205 4 C 215 1 228 1 238 1 C 248 1 265 1 274 4 C 301.3999938964844 -72.89999389648438 330.3999938964844 -155.1999969482422 362.6000061035156 -233.6999969482422 C 392.6000061035156 -155.60000610351562 424.5 -74.60000610351562 453 3 C 463 0 469 0 479 0 C 489 0 507 0 516 3 C 565 -115 645 -307 702 -432 C 693 -429 669 -429 659 -429 C 649 -429 634 -429 625 -432 C 588 -314 543 -186 501.79998779296875 -90.10000610351562 L 493.79998779296875 -90.10000610351562 C 452 -200.00003051757812 421 -326.0000305175781 398 -432.0000305175781 C 385 -429.0000305175781 362 -429.0000305175781 348 -429.0000305175781 C 332 -429.0000305175781 306 -429.0000305175781 290 -432.0000305175781 C 303.70001220703125 -391.0000305175781 319.6000061035156 -347.0000305175781 336.79998779296875 -301.3000183105469 C 310 -226.00003051757812 282.79998779296875 -151.00003051757812 253.8000030517578 -89.10003662109375 L 247.8000030517578 -89.10003662109375 C 197.70001220703125 -203.60006713867188 164.30001831054688 -316.300048828125 128.00001525878906 -431.00006103515625 C 115.00001525878906 -428.00006103515625 92.00001525878906 -428.00006103515625 78.00001525878906 -428.00006103515625 C 62.00001525878906 -428.00006103515625 36.00001525878906 -428.00006103515625 20.000015258789062 -431.00006103515625 C 87.00001525878906 -284.00006103515625 149.00001525878906 -142.00006103515625 205.00001525878906 3.99993896484375 "/>
</symbol>
<symbol overflow="visible" id="0.89">
<path d="M 184.5 -206.8000030517578 L 28 3 C 37.79998779296875 1.1999969482421875 54 0 64 0 C 74 0 97.69999694824219 1.1999969482421875 108 3 C 146.1999969482422 -54.29998779296875 176 -109 216 -165.10000610351562 C 256 -109 285.6000061035156 -54.29998779296875 322 3 C 336.5 0.8000030517578125 357 0 373 0 C 388 0 414.5 1.3000030517578125 430 3 C 369.5 -75.10000610351562 320.79998779296875 -152.1999969482422 266.8999938964844 -230.3000030517578 L 431 -432 C 418.29998779296875 -429.79998779296875 396 -429 386 -429 C 375 -429 359.5 -429.79998779296875 349 -432 C 310.6000061035156 -376.29998779296875 279.29998779296875 -323.20001220703125 237.10000610351562 -268.6000061035156 C 197 -323.20001220703125 169.60000610351562 -376.29998779296875 136 -432 C 118.69999694824219 -429.79998779296875 99 -429 82 -429 C 66 -429 40 -429.79998779296875 24 -432 "/>
</symbol>
</defs>
<a xlink:href="http://tagul.com/go?tag=Algorithms" target="_top">
	<t:tag>Algorithms</t:tag>
	<g transform="matrix(0.034545454545454546,0,0,0.034545454545454546,22.219090909090912,68.96272727272726)" fill="#000000">
		<rect x="-138.275" y="-852.275" width="4837.55" height="1243.55"/>
		<use xlink:href="#0.34" x="0" y="0"/>
		<use xlink:href="#0.77" x="629" y="0"/>
		<use xlink:href="#0.72" x="881" y="0"/>
		<use xlink:href="#0.80" x="1380" y="0"/>
		<use xlink:href="#0.83" x="1880" y="0"/>
		<use xlink:href="#0.74" x="2235" y="0"/>
		<use xlink:href="#0.85" x="2495" y="0"/>
		<use xlink:href="#0.73" x="2835" y="0"/>
		<use xlink:href="#0.78" x="3384" y="0"/>
		<use xlink:href="#0.84" x="4191" y="0"/>
	</g>
</a>
<a xlink:href="http://tagul.com/go?tag=Design Patterns" target="_top">
	<t:tag>Design Patterns</t:tag>
	<g transform="matrix(0.018909899567806265,0,0,0.018909899567806265,17.622591559170182,38.018353802429914)" fill="#000000">
		<rect x="-54.33500251770019" y="-810.3350177764893" width="6730.6700050354" height="1195.6700202941895"/>
		<use xlink:href="#0.37" x="0" y="0"/>
		<use xlink:href="#0.70" x="710" y="0"/>
		<use xlink:href="#0.84" x="1163" y="0"/>
		<use xlink:href="#0.74" x="1559" y="0"/>
		<use xlink:href="#0.72" x="1819" y="0"/>
		<use xlink:href="#0.79" x="2318" y="0"/>
		<use xlink:href="#0.1" x="2857" y="0"/>
		<use xlink:href="#0.49" x="3107" y="0"/>
		<use xlink:href="#0.66" x="3666" y="0"/>
		<use xlink:href="#0.85" x="4147" y="0"/>
		<use xlink:href="#0.85" x="4487" y="0"/>
		<use xlink:href="#0.70" x="4827" y="0"/>
		<use xlink:href="#0.83" x="5280" y="0"/>
		<use xlink:href="#0.79" x="5635" y="0"/>
		<use xlink:href="#0.84" x="6174" y="0"/>
	</g>
</a>
<a xlink:href="http://tagul.com/go?tag=Java" target="_top">
	<t:tag>Java</t:tag>
	<g transform="matrix(0.026951219512195125,0,0,0.026951219512195125,107.37958830898458,89.41439024390243)" fill="#000000">
		<rect x="-176.3" y="-783.3" width="2042.2000061035155" height="1090.6"/>
		<use xlink:href="#0.43" x="0" y="0"/>
		<use xlink:href="#0.66" x="320" y="0"/>
		<use xlink:href="#0.87" x="801" y="0"/>
		<use xlink:href="#0.66" x="1263" y="0"/>
	</g>
</a>
<a xlink:href="http://tagul.com/go?tag=OOP" target="_top">
	<t:tag>OOP</t:tag>
	<g transform="matrix(0.024176646706586823,0,0,0.024176646706586823,49.9298387145501,23.33323353293413)" fill="#000000">
		<rect x="-58.22" y="-768.22" width="2169.44" height="888.44"/>
		<use xlink:href="#0.48" x="0" y="0"/>
		<use xlink:href="#0.48" x="741" y="0"/>
		<use xlink:href="#0.49" x="1482" y="0"/>
	</g>
</a>
<a xlink:href="http://tagul.com/go?tag=PHP" target="_top">
	<t:tag>PHP</t:tag>
	<g transform="matrix(0.0233587786259542,0,0,0.0233587786259542,60.25592926752797,94.57992366412213)" fill="#000000">
		<rect x="-14.075000000000003" y="-760.075" width="1926.15" height="871.15"/>
		<use xlink:href="#0.49" x="0" y="0"/>
		<use xlink:href="#0.41" x="559" y="0"/>
		<use xlink:href="#0.49" x="1285" y="0"/>
	</g>
</a>
<a xlink:href="http://tagul.com/go?tag=Scrum" target="_top">
	<t:tag>Scrum</t:tag>
	<g transform="matrix(0.01781437125748503,0,0,0.01781437125748503,138.5698233759778,51.771856287425145)" fill="#000000">
		<rect x="-60.22" y="-768.22" width="2738.44" height="888.44"/>
		<use xlink:href="#0.52" x="0" y="0"/>
		<use xlink:href="#0.68" x="506" y="0"/>
		<use xlink:href="#0.83" x="935" y="0"/>
		<use xlink:href="#0.86" x="1290" y="0"/>
		<use xlink:href="#0.78" x="1827" y="0"/>
	</g>
</a>
<a xlink:href="http://tagul.com/go?tag=JUnit" target="_top">
	<t:tag>JUnit</t:tag>
	<g transform="matrix(0.01451219512195122,0,0,0.01451219512195122,69.35003394294459,49.45390243902439)" fill="#000000">
		<rect x="-176.3" y="-783.3" width="2419.6" height="1090.6"/>
		<use xlink:href="#0.43" x="0" y="0"/>
		<use xlink:href="#0.54" x="320" y="0"/>
		<use xlink:href="#0.79" x="1012" y="0"/>
		<use xlink:href="#0.74" x="1551" y="0"/>
		<use xlink:href="#0.85" x="1811" y="0"/>
	</g>
</a>
<a xlink:href="http://tagul.com/go?tag=Hadoop" target="_top">
	<t:tag>Hadoop</t:tag>
	<g transform="matrix(0.010932475884244373,0,0,0.010932475884244373,13.270984011785487,77.53086816720257)" fill="#000000">
		<rect x="-59.94499999999999" y="-851.9449999999999" width="3423.89" height="1240.8899999999999"/>
		<use xlink:href="#0.41" x="0" y="0"/>
		<use xlink:href="#0.66" x="726" y="0"/>
		<use xlink:href="#0.69" x="1207" y="0"/>
		<use xlink:href="#0.80" x="1737" y="0"/>
		<use xlink:href="#0.80" x="2237" y="0"/>
		<use xlink:href="#0.81" x="2737" y="0"/>
	</g>
</a>
<a xlink:href="http://tagul.com/go?tag=Machine learning" target="_top">
	<t:tag>Machine learning</t:tag>
	<g transform="matrix(0.007272727272727273,0,0,0.007272727272727273,117.22681334305894,74.67636363636363)" fill="#000000">
		<rect x="-90.275" y="-852.275" width="7443.55" height="1243.55"/>
		<use xlink:href="#0.46" x="0" y="0"/>
		<use xlink:href="#0.66" x="886" y="0"/>
		<use xlink:href="#0.68" x="1367" y="0"/>
		<use xlink:href="#0.73" x="1796" y="0"/>
		<use xlink:href="#0.74" x="2345" y="0"/>
		<use xlink:href="#0.79" x="2605" y="0"/>
		<use xlink:href="#0.70" x="3144" y="0"/>
		<use xlink:href="#0.1" x="3597" y="0"/>
		<use xlink:href="#0.77" x="3847" y="0"/>
		<use xlink:href="#0.70" x="4099" y="0"/>
		<use xlink:href="#0.66" x="4552" y="0"/>
		<use xlink:href="#0.83" x="5033" y="0"/>
		<use xlink:href="#0.79" x="5388" y="0"/>
		<use xlink:href="#0.74" x="5927" y="0"/>
		<use xlink:href="#0.79" x="6187" y="0"/>
		<use xlink:href="#0.72" x="6726" y="0"/>
	</g>
</a>
<a xlink:href="http://tagul.com/go?tag=MySQL" target="_top">
	<t:tag>MySQL</t:tag>
	<g transform="matrix(0.011345939740683758,0,0,0.011345939740683758,97.43848426897408,23.41101228145795)" fill="#000000">
		<rect x="-84.33500251770019" y="-810.3350177764893" width="3354.6700050354" height="1195.6700202941895"/>
		<use xlink:href="#0.46" x="0" y="0"/>
		<use xlink:href="#0.90" x="886" y="0"/>
		<use xlink:href="#0.52" x="1392" y="0"/>
		<use xlink:href="#0.50" x="1898" y="0"/>
		<use xlink:href="#0.45" x="2639" y="0"/>
	</g>
</a>
<a xlink:href="http://tagul.com/go?tag=XML" target="_top">
	<t:tag>XML</t:tag>
	<g transform="matrix(0.014060150053322009,0,0,0.014060150053322009,32.15979662821697,90.13281954984004)" fill="#000000">
		<rect x="-86.7250025177002" y="-771.7250177764893" width="2146.4500050354004" height="884.4500202941895"/>
		<use xlink:href="#0.57" x="0" y="0"/>
		<use xlink:href="#0.46" x="581" y="0"/>
		<use xlink:href="#0.45" x="1467" y="0"/>
	</g>
</a>
<a xlink:href="http://tagul.com/go?tag=PHPUnit" target="_top">
	<t:tag>PHPUnit</t:tag>
	<g transform="matrix(0.010271903323262839,0,0,0.010271903323262839,121.00360903522939,97.29728096676737)" fill="#000000">
		<rect x="-15.230000000000004" y="-761.23" width="3756.46" height="880.46"/>
		<use xlink:href="#0.49" x="0" y="0"/>
		<use xlink:href="#0.41" x="559" y="0"/>
		<use xlink:href="#0.49" x="1285" y="0"/>
		<use xlink:href="#0.54" x="1844" y="0"/>
		<use xlink:href="#0.79" x="2536" y="0"/>
		<use xlink:href="#0.74" x="3075" y="0"/>
		<use xlink:href="#0.85" x="3335" y="0"/>
	</g>
</a>
<a xlink:href="http://tagul.com/go?tag=Drupal" target="_top">
	<t:tag>Drupal</t:tag>
	<g transform="matrix(0.009110396570203644,0,0,0.009110396570203644,84.17819660061936,76.10905680600214)" fill="#000000">
		<rect x="-59.94499999999999" y="-851.9449999999999" width="2998.89" height="1240.8899999999999"/>
		<use xlink:href="#0.37" x="0" y="0"/>
		<use xlink:href="#0.83" x="710" y="0"/>
		<use xlink:href="#0.86" x="1065" y="0"/>
		<use xlink:href="#0.81" x="1602" y="0"/>
		<use xlink:href="#0.66" x="2125" y="0"/>
		<use xlink:href="#0.77" x="2606" y="0"/>
	</g>
</a>
<a xlink:href="http://tagul.com/go?tag=Wordpress" target="_top">
	<t:tag>Wordpress</t:tag>
	<g transform="matrix(0.006377277599142551,0,0,0.006377277599142551,149.8676851415868,41.9763397642015)" fill="#000000">
		<rect x="-137.945" y="-851.9449999999999" width="4708.89" height="1240.8899999999999"/>
		<use xlink:href="#0.56" x="0" y="0"/>
		<use xlink:href="#0.80" x="951" y="0"/>
		<use xlink:href="#0.83" x="1451" y="0"/>
		<use xlink:href="#0.69" x="1806" y="0"/>
		<use xlink:href="#0.81" x="2336" y="0"/>
		<use xlink:href="#0.83" x="2859" y="0"/>
		<use xlink:href="#0.70" x="3214" y="0"/>
		<use xlink:href="#0.84" x="3667" y="0"/>
		<use xlink:href="#0.84" x="4063" y="0"/>
	</g>
</a>
<a xlink:href="http://tagul.com/go?tag=GWT" target="_top">
	<t:tag>GWT</t:tag>
	<g transform="matrix(0.012724550898203593,0,0,0.012724550898203593,22.32719934931022,24.122754491017965)" fill="#000000">
		<rect x="-58.22" y="-768.22" width="2361.44" height="888.44"/>
		<use xlink:href="#0.40" x="0" y="0"/>
		<use xlink:href="#0.56" x="717" y="0"/>
		<use xlink:href="#0.53" x="1668" y="0"/>
	</g>
</a>
<a xlink:href="http://tagul.com/go?tag=PlayN" target="_top">
	<t:tag>PlayN</t:tag>
	<g transform="matrix(0.009995719178082193,0,0,0.009995719178082193,1.8854023972602716,56.80584456042668)" fill="#000000">
		<rect x="-60.275000000000006" y="-852.275" width="2644.55" height="1243.55"/>
		<use xlink:href="#0.49" x="0" y="0"/>
		<use xlink:href="#0.77" x="559" y="0"/>
		<use xlink:href="#0.66" x="811" y="0"/>
		<use xlink:href="#0.90" x="1292" y="0"/>
		<use xlink:href="#0.47" x="1798" y="0"/>
	</g>
</a>
<a xlink:href="http://tagul.com/go?tag=Subversion" target="_top">
	<t:tag>Subversion</t:tag>
	<g transform="matrix(0.008403954802259887,0,0,0.008403954802259887,8.120439932578162,45.3909604519774)" fill="#000000">
		<rect x="-66.82000000000001" y="-814.82" width="4625.64" height="941.64"/>
		<use xlink:href="#0.52" x="0" y="0"/>
		<use xlink:href="#0.86" x="506" y="0"/>
		<use xlink:href="#0.67" x="1043" y="0"/>
		<use xlink:href="#0.87" x="1547" y="0"/>
		<use xlink:href="#0.70" x="2009" y="0"/>
		<use xlink:href="#0.83" x="2462" y="0"/>
		<use xlink:href="#0.84" x="2817" y="0"/>
		<use xlink:href="#0.74" x="3213" y="0"/>
		<use xlink:href="#0.80" x="3473" y="0"/>
		<use xlink:href="#0.79" x="3973" y="0"/>
	</g>
</a>
<a xlink:href="http://tagul.com/go?tag=Git" target="_top">
	<t:tag>Git</t:tag>
	<g transform="matrix(0.01399700598802395,0,0,0.01399700598802395,179.92515340150678,62.035029940119756)" fill="#000000">
		<rect x="-58.22" y="-768.22" width="1442.44" height="888.44"/>
		<use xlink:href="#0.40" x="0" y="0"/>
		<use xlink:href="#0.74" x="717" y="0"/>
		<use xlink:href="#0.85" x="977" y="0"/>
	</g>
</a>
<a xlink:href="http://tagul.com/go?tag=Apache" target="_top">
	<t:tag>Apache</t:tag>
	<g transform="matrix(0.00819935691318328,0,0,0.00819935691318328,152.98375858881533,83.39815112540192)" fill="#000000">
		<rect x="-137.945" y="-851.9449999999999" width="3314.89" height="1240.8899999999999"/>
		<use xlink:href="#0.34" x="0" y="0"/>
		<use xlink:href="#0.81" x="629" y="0"/>
		<use xlink:href="#0.66" x="1152" y="0"/>
		<use xlink:href="#0.68" x="1633" y="0"/>
		<use xlink:href="#0.73" x="2062" y="0"/>
		<use xlink:href="#0.70" x="2611" y="0"/>
	</g>
</a>
<a xlink:href="http://tagul.com/go?tag=Hudson" target="_top">
	<t:tag>Hudson</t:tag>
	<g transform="matrix(0.008142950391644909,0,0,0.008142950391644909,140.75956266318536,36.37201949922324)" fill="#000000">
		<rect x="-22.820000000000007" y="-814.82" width="3297.64" height="941.64"/>
		<use xlink:href="#0.41" x="0" y="0"/>
		<use xlink:href="#0.86" x="726" y="0"/>
		<use xlink:href="#0.69" x="1263" y="0"/>
		<use xlink:href="#0.84" x="1793" y="0"/>
		<use xlink:href="#0.80" x="2189" y="0"/>
		<use xlink:href="#0.79" x="2689" y="0"/>
	</g>
</a>
<a xlink:href="http://tagul.com/go?tag=Maven" target="_top">
	<t:tag>Maven</t:tag>
	<g transform="matrix(0.0075892853696330215,0,0,0.0075892853696330215,117.45567733563021,44.47410703050036)" fill="#000000">
		<rect x="-46.8800050354004" y="-772.8800202941894" width="2908.760010070801" height="893.760040588379"/>
		<use xlink:href="#0.46" x="0" y="0"/>
		<use xlink:href="#0.66" x="886" y="0"/>
		<use xlink:href="#0.87" x="1367" y="0"/>
		<use xlink:href="#0.70" x="1829" y="0"/>
		<use xlink:href="#0.79" x="2282" y="0"/>
	</g>
</a>
<a xlink:href="http://tagul.com/go?tag=Ant" target="_top">
	<t:tag>Ant</t:tag>
	<g transform="matrix(0.011452095546788757,0,0,0.011452095546788757,172.6022279626961,78.21047904453211)" fill="#000000">
		<rect x="-94.2200025177002" y="-768.2200177764893" width="1669.4400050354004" height="888.4400202941895"/>
		<use xlink:href="#0.34" x="0" y="0"/>
		<use xlink:href="#0.79" x="629" y="0"/>
		<use xlink:href="#0.85" x="1168" y="0"/>
	</g>
</a>
<a xlink:href="http://tagul.com/go?tag=HTML" target="_top">
	<t:tag>HTML</t:tag>
	<g transform="matrix(0.0076691727563574594,0,0,0.0076691727563574594,101.28903852140556,15.526992481730929)" fill="#000000">
		<rect x="-15.725002517700204" y="-771.7250177764893" width="2760.4500050354004" height="884.4500202941895"/>
		<use xlink:href="#0.41" x="0" y="0"/>
		<use xlink:href="#0.53" x="726" y="0"/>
		<use xlink:href="#0.46" x="1266" y="0"/>
		<use xlink:href="#0.45" x="2152" y="0"/>
	</g>
</a>
<a xlink:href="http://tagul.com/go?tag=CSS" target="_top">
	<t:tag>CSS</t:tag>
	<g transform="matrix(0.010179640718562874,0,0,0.010179640718562874,50.54700526991807,50.298203592814374)" fill="#000000">
		<rect x="-58.22" y="-768.22" width="1803.44" height="888.44"/>
		<use xlink:href="#0.36" x="0" y="0"/>
		<use xlink:href="#0.52" x="677" y="0"/>
		<use xlink:href="#0.52" x="1183" y="0"/>
	</g>
</a>
<a xlink:href="http://tagul.com/go?tag=Tomcate" target="_top">
	<t:tag>Tomcate</t:tag>
	<g transform="matrix(0.00645896641556838,0,0,0.00645896641556838,63.494114433362064,6.56041023728831)" fill="#000000">
		<rect x="-93.5700025177002" y="-756.5700025177002" width="3711.1400050354005" height="875.1400202941895"/>
		<use xlink:href="#0.53" x="0" y="0"/>
		<use xlink:href="#0.80" x="540" y="0"/>
		<use xlink:href="#0.78" x="1040" y="0"/>
		<use xlink:href="#0.68" x="1847" y="0"/>
		<use xlink:href="#0.66" x="2276" y="0"/>
		<use xlink:href="#0.85" x="2757" y="0"/>
		<use xlink:href="#0.70" x="3097" y="0"/>
	</g>
</a>
<a xlink:href="http://tagul.com/go?tag=Jenkins" target="_top">
	<t:tag>Jenkins</t:tag>
	<g transform="matrix(0.005862068965517241,0,0,0.005862068965517241,4.627716329583882,64.54172413793103)" fill="#000000">
		<rect x="-184.55" y="-841.55" width="3296.1" height="1157.1"/>
		<use xlink:href="#0.43" x="0" y="0"/>
		<use xlink:href="#0.70" x="320" y="0"/>
		<use xlink:href="#0.79" x="773" y="0"/>
		<use xlink:href="#0.76" x="1312" y="0"/>
		<use xlink:href="#0.74" x="1815" y="0"/>
		<use xlink:href="#0.79" x="2075" y="0"/>
		<use xlink:href="#0.84" x="2614" y="0"/>
	</g>
</a>
<a xlink:href="http://tagul.com/go?tag=Octave" target="_top">
	<t:tag>Octave</t:tag>
	<g transform="matrix(0.006362275303771532,0,0,0.006362275303771532,53.267755905673575,28.561377149881668)" fill="#000000">
		<rect x="-58.220002517700195" y="-768.2200025177002" width="3033.4400050354" height="888.4400202941895"/>
		<use xlink:href="#0.48" x="0" y="0"/>
		<use xlink:href="#0.68" x="741" y="0"/>
		<use xlink:href="#0.85" x="1170" y="0"/>
		<use xlink:href="#0.66" x="1510" y="0"/>
		<use xlink:href="#0.87" x="1991" y="0"/>
		<use xlink:href="#0.70" x="2453" y="0"/>
	</g>
</a>
<a xlink:href="http://tagul.com/go?tag=Hibernate" target="_top">
	<t:tag>Hibernate</t:tag>
	<g transform="matrix(0.005596076458752515,0,0,0.005596076458752515,127.84896881287726,28.370434649409827)" fill="#000000">
		<rect x="-22.820002517700203" y="-814.8200025177002" width="4209.6400050354005" height="941.6400202941895"/>
		<use xlink:href="#0.41" x="0" y="0"/>
		<use xlink:href="#0.74" x="726" y="0"/>
		<use xlink:href="#0.67" x="986" y="0"/>
		<use xlink:href="#0.70" x="1490" y="0"/>
		<use xlink:href="#0.83" x="1943" y="0"/>
		<use xlink:href="#0.79" x="2298" y="0"/>
		<use xlink:href="#0.66" x="2837" y="0"/>
		<use xlink:href="#0.85" x="3318" y="0"/>
		<use xlink:href="#0.70" x="3658" y="0"/>
	</g>
</a>
<a xlink:href="http://tagul.com/go?tag=Swing" target="_top">
	<t:tag>Swing</t:tag>
	<g transform="matrix(0.0066480446927374304,0,0,0.0066480446927374304,100.39550659682976,43.89941340782123)" fill="#000000">
		<rect x="-97.67500000000001" y="-805.675" width="2745.35" height="1190.35"/>
		<use xlink:href="#0.52" x="0" y="0"/>
		<use xlink:href="#0.88" x="506" y="0"/>
		<use xlink:href="#0.74" x="1228" y="0"/>
		<use xlink:href="#0.79" x="1488" y="0"/>
		<use xlink:href="#0.72" x="2027" y="0"/>
	</g>
</a>
<a xlink:href="http://tagul.com/go?tag=XSLT" target="_top">
	<t:tag>XSLT</t:tag>
	<g transform="matrix(0.007634730538922155,0,0,0.007634730538922155,34.28751829567137,15.473652694610777)" fill="#000000">
		<rect x="-87.22" y="-768.22" width="2324.44" height="888.44"/>
		<use xlink:href="#0.57" x="0" y="0"/>
		<use xlink:href="#0.52" x="581" y="0"/>
		<use xlink:href="#0.45" x="1087" y="0"/>
		<use xlink:href="#0.53" x="1602" y="0"/>
	</g>
</a>
<a xlink:href="http://tagul.com/go?tag=JavaScript" target="_top">
	<t:tag>JavaScript</t:tag>
	<g transform="matrix(0.0038073908174692046,0,0,0.0038073908174692046,43.75156623504807,93.80526315789474)" fill="#000000">
		<rect x="-188.345" y="-805.345" width="4449.69" height="1187.69"/>
		<use xlink:href="#0.43" x="0" y="0"/>
		<use xlink:href="#0.66" x="320" y="0"/>
		<use xlink:href="#0.87" x="801" y="0"/>
		<use xlink:href="#0.66" x="1263" y="0"/>
		<use xlink:href="#0.52" x="1744" y="0"/>
		<use xlink:href="#0.68" x="2250" y="0"/>
		<use xlink:href="#0.83" x="2679" y="0"/>
		<use xlink:href="#0.74" x="3034" y="0"/>
		<use xlink:href="#0.81" x="3294" y="0"/>
		<use xlink:href="#0.85" x="3817" y="0"/>
	</g>
</a>
<a xlink:href="http://tagul.com/go?tag=AJAX" target="_top">
	<t:tag>AJAX</t:tag>
	<g transform="matrix(0.006890874882408278,0,0,0.006890874882408278,69.56474600188147,76.21285875211427)" fill="#000000">
		<rect x="-120.9500025177002" y="-794.9500177764893" width="2399.9000050354" height="1103.9000202941895"/>
		<use xlink:href="#0.34" x="0" y="0"/>
		<use xlink:href="#0.43" x="629" y="0"/>
		<use xlink:href="#0.34" x="949" y="0"/>
		<use xlink:href="#0.57" x="1578" y="0"/>
	</g>
</a>
<a xlink:href="http://tagul.com/go?tag=Unix" target="_top">
	<t:tag>Unix</t:tag>
	<g transform="matrix(0.007713347921225383,0,0,0.007713347921225383,179.72494529540484,68.45757704859804)" fill="#000000">
		<rect x="-14.570000000000007" y="-756.57" width="2045.14" height="875.14"/>
		<use xlink:href="#0.54" x="0" y="0"/>
		<use xlink:href="#0.79" x="692" y="0"/>
		<use xlink:href="#0.74" x="1231" y="0"/>
		<use xlink:href="#0.89" x="1491" y="0"/>
	</g>
</a>
<a xlink:href="http://tagul.com/go?tag=SOAP" target="_top">
	<t:tag>SOAP</t:tag>
	<g transform="matrix(0.006362275303771532,0,0,0.006362275303771532,15.770724945192331,82.5613772469623)" fill="#000000">
		<rect x="-60.220002517700195" y="-768.2200177764893" width="2565.4400050354" height="888.4400202941895"/>
		<use xlink:href="#0.52" x="0" y="0"/>
		<use xlink:href="#0.48" x="506" y="0"/>
		<use xlink:href="#0.34" x="1247" y="0"/>
		<use xlink:href="#0.49" x="1876" y="0"/>
	</g>
</a>
</svg>