<?xml version="1.0" encoding="iso-8859-1"?>
<!-- Generator: Adobe Illustrator 17.1.0, SVG Export Plug-In . SVG Version: 6.00 Build 0)  -->
<!DOCTYPE svg PUBLIC "-//W3C//DTD SVG 1.1//EN" "http://www.w3.org/Graphics/SVG/1.1/DTD/svg11.dtd">
<svg version="1.1" id="Capa_1" xmlns="http://www.w3.org/2000/svg" xmlns:xlink="http://www.w3.org/1999/xlink" x="0px" y="0px"
	 viewBox="0 0 100 100" style="enable-background:new 0 0 100 100;" xml:space="preserve">
<g>
	<path style="fill:#1D1D1B;" d="M85,45.821L41.405,89.414c-0.754,0.756-2.072,0.756-2.828,0L11.881,62.718
		c-1.172-1.172-3.07-1.172-4.242,0c-1.172,1.171-1.172,3.071,0,4.242l26.696,26.696C35.846,95.168,37.855,96,39.992,96
		s4.146-0.832,5.656-2.344l43.594-43.593c1.172-1.171,1.172-3.071,0-4.242C88.07,44.649,86.172,44.649,85,45.821z"/>
	<path style="fill:#1D1D1B;" d="M35.928,84.191c1.952,1.953,5.118,1.953,7.071,0l43.594-43.594c2.144-2.144,3.107-6.214,2.153-9.091
		l-4.856-14.64c-0.954-2.877-4.078-5.927-6.978-6.813L61.238,5.269c-2.899-0.885-6.987,0.135-9.131,2.279L9.23,50.423
		c-1.952,1.953-1.952,5.118,0,7.071L35.928,84.191z M63.657,19.156c2.93-2.93,7.679-2.93,10.608,0c2.93,2.93,2.93,7.679,0,10.609
		s-7.679,2.93-10.608,0S60.728,22.086,63.657,19.156z"/>
</g>
</svg>
