<?xml version="1.0" encoding="iso-8859-1"?>
<!-- Generator: Adobe Illustrator 17.1.0, SVG Export Plug-In . SVG Version: 6.00 Build 0)  -->
<!DOCTYPE svg PUBLIC "-//W3C//DTD SVG 1.1//EN" "http://www.w3.org/Graphics/SVG/1.1/DTD/svg11.dtd">
<svg version="1.1" id="Capa_1" xmlns="http://www.w3.org/2000/svg" xmlns:xlink="http://www.w3.org/1999/xlink" x="0px" y="0px"
	 viewBox="0 0 100 100" style="enable-background:new 0 0 100 100;" xml:space="preserve">
<g>
	<path style="fill:#1D1D1B;" d="M82.14,23.866c-0.954-2.877-4.078-5.927-6.978-6.813l-15.674-4.785
		c-2.899-0.885-6.988,0.135-9.131,2.279L7.481,57.423c-1.953,1.953-1.953,5.118,0,7.071l26.697,26.697
		c1.953,1.953,5.118,1.953,7.071,0l43.594-43.594c2.144-2.144,3.107-6.214,2.153-9.091L82.14,23.866z M72.516,36.765
		c-2.93,2.93-7.679,2.93-10.608,0c-2.93-2.93-2.93-7.679,0-10.609c2.929-2.93,7.679-2.93,10.608,0
		C75.445,29.086,75.445,33.835,72.516,36.765z"/>
</g>
</svg>
